<?xml version="1.0" standalone="no"?>
<!DOCTYPE svg PUBLIC "-//W3C//DTD SVG 1.1//EN" "http://www.w3.org/Graphics/SVG/1.1/DTD/svg11.dtd">
<svg xmlns="http://www.w3.org/2000/svg"><defs><font id="flaticon" horiz-adv-x="512"><font-face units-per-em="512" ascent="448" descent="-64" x-height="240" cap-height="480"/><missing-glyph horiz-adv-x="512"/><glyph unicode="&#xE000;" glyph-name="accomodation1" horiz-adv-x="512" d="M491.5712 -22.9888V157.4912c0 7.3728 -4.5056 13.9776 -11.3664 16.6912L308.992 241.2032V406.4768c0 9.8816 -8.0384 17.92 -17.92 17.92H40.3968c-9.8816 0 -17.92 -8.0384 -17.92 -17.92v-429.4656 c0 -9.8816 8.0384 -17.92 17.92 -17.92h83.3536v36.2496c0 23.1936 18.7904 42.0352 42.0352 42.0352h0c23.1936 0 42.0352 -18.7904 42.0352 -42.0352v-36.2496h101.2736h164.6592 C483.5328 -40.9088 491.5712 -32.9216 491.5712 -22.9888zM132.352 73.9328H77.6192v46.9504c0 15.104 12.2368 27.3408 27.3408 27.3408c15.104 0 27.3408 -12.2368 27.3408 -27.3408V73.9328zM132.352 186.5728H77.6192v46.9504c0 15.104 12.2368 27.3408 27.3408 27.3408c15.104 0 27.3408 -12.2368 27.3408 -27.3408V186.5728zM132.352 299.264H77.6192v46.9504 c0 15.104 12.2368 27.3408 27.3408 27.3408c15.104 0 27.3408 -12.2368 27.3408 -27.3408V299.264zM253.8496 73.9328H199.1168v46.9504c0 15.104 12.2368 27.3408 27.3408 27.3408 c15.104 0 27.3408 -12.2368 27.3408 -27.3408V73.9328zM253.8496 186.5728H199.1168v46.9504c0 15.104 12.2368 27.3408 27.3408 27.3408c15.104 0 27.3408 -12.2368 27.3408 -27.3408V186.5728zM253.8496 299.264H199.1168v46.9504c0 15.104 12.2368 27.3408 27.3408 27.3408c15.104 0 27.3408 -12.2368 27.3408 -27.3408V299.264zM450.304 48.0256H350.3104V177.408L450.304 138.24 V48.0256zM329.728 424.3968v-136.7552h136.7552c9.8816 0 17.92 8.0384 17.92 17.92V406.4768c0 9.8816 -8.0384 17.92 -17.92 17.92H329.728zM444.16 318.8736c0 -5.632 -4.608 -10.24 -10.24 -10.24h-2.4064 c-5.632 0 -10.24 4.608 -10.24 10.24v28.2112h-29.696v-28.2112c0 -5.632 -4.608 -10.24 -10.24 -10.24h-2.4064c-5.632 0 -10.24 4.608 -10.24 10.24V391.4752c0 5.632 4.608 10.24 10.24 10.24h2.4064c5.632 0 10.24 -4.608 10.24 -10.24V367.104h29.696v24.3712 c0 5.632 4.608 10.24 10.24 10.24h2.4064c5.632 0 10.24 -4.608 10.24 -10.24V318.8736z"/><glyph unicode="&#xE001;" glyph-name="avatar4" horiz-adv-x="512" d="M48.3328 206.6944c14.7968 0.512 26.624 3.5328 36.096 7.68c10.2912 -6.5536 22.4768 -10.3424 35.584 -10.3424c13.1072 0 25.2928 3.7888 35.584 10.3424c9.4208 -4.1984 21.248 -7.168 36.096 -7.68 c3.6352 -0.1536 6.0928 3.7376 4.4032 6.9632c-3.584 6.912 -8.0384 18.944 -8.0384 36.1472c0 28.7744 -0.9728 97.1776 -68.0448 97.1776S51.968 278.5792 51.968 249.8048 c0 -17.152 -4.4544 -29.184 -8.0384 -36.1472C42.24 210.432 44.6976 206.5408 48.3328 206.6944zM27.8016 64.8704h147.1488l0.5632 3.2768c2.816 16.2816 11.3152 31.0784 23.9104 41.728c4.7616 3.9936 9.984 7.3216 15.5648 9.9328c-2.1504 1.6384 -4.1472 3.4304 -6.0928 5.376 c-12.032 12.032 -18.6368 28.0064 -18.6368 45.0048c0 0.1536 0 0.3584 0 0.512c-15.3088 11.5712 -34.3552 18.3296 -54.784 18.3296h-30.976c-44.2368 0 -82.0736 -31.8464 -89.6 -75.4688l-4.8128 -27.7504 C8.2432 74.8544 16.6912 64.8704 27.8016 64.8704zM495.9744 113.5616c-7.5264 43.6224 -45.3632 75.4688 -89.6 75.4688h-30.976c-21.8112 0 -42.0352 -7.7312 -57.856 -20.7872c-0.5632 -19.6096 -10.1888 -37.12 -24.7808 -48.4352 c5.5808 -2.6112 10.8544 -5.9392 15.6672 -9.984c12.6464 -10.6496 21.0944 -25.4464 23.9104 -41.728l0.5632 -3.2768h150.2208c11.1104 0 19.5584 10.0352 17.664 20.9408L495.9744 113.5616zM317.3376 64.8704l-0.1024 0.6656c-3.2256 18.8416 -15.872 33.9968 -32.5632 41.1136c-6.6048 2.816 -13.824 4.352 -21.3504 4.352h-18.6368c-6.4512 0 -12.6976 -1.1264 -18.4832 -3.2256 c-18.1248 -6.5024 -32.0512 -22.3232 -35.4816 -42.24l-0.1024 -0.6656l-2.3552 -13.6704c-1.3312 -7.8336 4.6592 -14.9504 12.5952 -14.9504h106.2912c7.936 0 13.9776 7.168 12.5952 14.9504L317.3376 64.8704zM216.2688 139.9808c8.8576 -11.008 22.4256 -18.0736 37.6832 -18.0736c0.2048 0 0.4608 0 0.6656 0c26.368 0.3584 47.7696 22.2208 47.616 48.5888c-0.1024 17.7664 -9.8304 33.28 -24.2176 41.5744 c-7.6288 4.4032 -14.0288 10.6496 -18.3296 18.2784c-1.6384 2.8672 -3.1232 6.144 -4.3008 9.6768c-0.256 0.7168 -0.8704 1.0752 -1.4848 1.0752s-1.2288 -0.3584 -1.4848 -1.0752c-1.1776 -3.5328 -2.6624 -6.7584 -4.3008 -9.6768 c-4.352 -7.7312 -10.8544 -13.9776 -18.5344 -18.432c-14.3872 -8.3456 -24.0128 -23.9104 -24.0128 -41.7792c0 -6.9632 1.4848 -13.568 4.096 -19.5584C211.456 146.7904 213.6576 143.2064 216.2688 139.9808zM389.2224 205.2608c37.2224 0 67.3792 30.1568 67.3792 67.3792V339.0464c0 10.752 -10.24 18.5856 -20.6336 15.7184l-82.0736 -22.6304c-18.944 -5.2224 -32.0512 -22.4256 -32.0512 -42.0864v-17.408 C321.8432 235.4176 352 205.2608 389.2224 205.2608z"/><glyph unicode="&#xE002;" glyph-name="babies" horiz-adv-x="512" d="M253.0304 184.4224c-0.512 0 -1.0752 0 -1.5872 0c-15.104 0 -29.7472 2.9696 -43.52 8.8064c-13.312 5.632 -25.2928 13.6704 -35.5328 23.9616c-2.56 2.56 -5.0176 5.2224 -7.2704 8.0384 c-16.4864 -24.1152 -27.8528 -55.0912 -31.6416 -89.6l217.2928 -118.016c12.6976 26.4704 20.0704 58.2656 20.0704 92.5184c0 44.6976 -12.5952 85.2992 -33.1264 115.2 C317.4912 200.7552 287.0784 184.8832 253.0304 184.4224zM251.4432 -56.6272c36.352 0 68.864 22.6816 90.7776 58.4192L132.1472 115.8656c-0.0512 -1.9456 -0.1024 -3.8912 -0.1024 -5.8368C132.096 18.0224 185.5488 -56.6272 251.4432 -56.6272zM299.52 379.8016c-15.2064 8.7552 -28.0064 21.248 -36.608 36.5568c-3.2256 5.7856 -6.2464 12.2368 -8.5504 19.3024c-0.4608 1.4336 -1.6896 2.0992 -2.9184 2.0992 c-1.2288 0 -2.4576 -0.7168 -2.9184 -2.0992c-2.304 -7.0656 -5.3248 -13.5168 -8.5504 -19.3024c-8.6528 -15.4112 -21.7088 -27.8528 -37.0176 -36.7616c-28.672 -16.6912 -47.9744 -47.7696 -47.9744 -83.4048 c0 -21.9648 7.3728 -42.24 19.712 -58.4192c17.6128 -23.0912 45.4144 -37.9904 76.6976 -37.9904c0.4608 0 0.9216 0 1.3824 0c30.6176 0.4096 57.856 15.3088 75.264 38.0928 c12.544 16.384 19.968 36.864 19.8144 58.9824C347.648 332.288 328.2432 363.264 299.52 379.8016z"/><glyph unicode="&#xE003;" glyph-name="baby145" horiz-adv-x="512" d="M461.824 301.056c-7.8336 0 -15.2064 1.8432 -21.76 5.12v-25.344H72.2944V306.176c-6.5536 -3.2768 -13.9264 -5.12 -21.76 -5.12c-7.8336 0 -15.2064 1.8432 -21.76 5.12v-324.9664 c0 -8.4992 6.8608 -15.36 15.36 -15.36h12.8c8.4992 0 15.36 6.8608 15.36 15.36V16.384h367.7696v-35.1744c0 -8.4992 6.8608 -15.36 15.36 -15.36h12.8c8.4992 0 15.36 6.8608 15.36 15.36V306.176 C477.0304 302.8992 469.6576 301.056 461.824 301.056zM277.9648 237.312h60.0576v-119.5008H277.9648V237.312zM234.4448 117.8112H174.3872V237.312h60.0576V117.8112zM72.2944 237.312h58.5728 v-119.5008H72.2944V237.312zM381.4912 117.8112V237.312h58.5728v-119.5008H381.4912zM50.5344 383.488c-18.5344 0 -33.536 -15.0016 -33.536 -33.536c0 -11.3152 5.632 -21.3504 14.2336 -27.392c5.4784 -3.84 12.1344 -6.144 19.3024 -6.144c7.2192 0 13.8752 2.2528 19.3024 6.144 c8.6016 6.0928 14.2336 16.0768 14.2336 27.392C84.0704 368.4864 69.0688 383.488 50.5344 383.488zM461.824 383.488c-18.5344 0 -33.536 -15.0016 -33.536 -33.536c0 -11.3152 5.632 -21.3504 14.2336 -27.392c5.4784 -3.84 12.1344 -6.144 19.3024 -6.144s13.8752 2.2528 19.3024 6.144 c8.6016 6.0928 14.2336 16.0768 14.2336 27.392C495.36 368.4864 480.3584 383.488 461.824 383.488z"/><glyph unicode="&#xE004;" glyph-name="baby146" horiz-adv-x="512" d="M133.2224 -25.2928c9.0112 -9.0112 23.6032 -9.0112 32.5632 0L245.248 54.1184l-39.3728 39.3728c-5.9904 5.9904 -5.9904 15.7184 0 21.7088l1.792 1.792 c5.9904 5.9904 15.7184 5.9904 21.7088 0l39.3728 -39.3728l26.7264 26.7264l-39.3728 39.3728c-5.9904 5.9904 -5.9904 15.7184 0 21.7088l1.792 1.792c5.9904 5.9904 15.7184 5.9904 21.7088 0 l39.3728 -39.3728l44.3392 44.3392l-47.5648 47.5648l-34.56 34.56l-47.5648 47.5648L36.096 104.448c-9.0112 -9.0112 -9.0112 -23.6032 0 -32.5632L133.2224 -25.2928zM438.1696 306.7392c-0.3072 4.096 -0.4096 8.3968 -0.2048 12.8512c0.8704 19.0464 11.0592 36.3008 26.7264 47.2064c1.9968 1.3824 3.9936 3.0208 5.7856 4.864c13.1584 13.1584 15.4112 32.1536 5.0688 42.496 c-10.3424 10.3424 -29.3888 8.0896 -42.496 -5.0688c-1.8432 -1.8432 -3.4304 -3.7888 -4.864 -5.7856c-10.9056 -15.6672 -28.1088 -25.856 -47.2064 -26.7264c-4.4544 -0.2048 -8.7552 -0.1024 -12.8512 0.2048 c-21.8112 1.6896 -43.3664 -3.6864 -61.3888 -15.2576L422.912 245.3504C434.4832 263.3728 439.9104 284.9792 438.1696 306.7392zM244.48 312.832l38.6048 -38.6048L335.616 221.696l38.6048 -38.6048l0.3584 -0.3584c4.3008 -4.3008 9.9328 -6.4512 15.616 -6.4512c5.632 0 11.3152 2.1504 15.616 6.4512l13.4144 13.4144 c8.6016 8.6016 8.6016 22.5792 0 31.1808l-5.6832 5.6832L294.4 352.1536l-5.6832 5.6832c-4.3008 4.3008 -9.9328 6.4512 -15.616 6.4512s-11.3152 -2.1504 -15.616 -6.4512l-13.4144 -13.4144 c-8.6016 -8.6016 -8.6016 -22.5792 0 -31.1808L244.48 312.832z"/><glyph unicode="&#xE005;" glyph-name="baby carriage" horiz-adv-x="512" d="M233.1648 299.0592c-15.7696 5.5808 -33.1264 8.704 -51.3024 8.704c-55.6032 0 -103.2704 -28.8768 -123.392 -69.9904l174.6432 0V299.0592zM106.8544 67.3792h283.3408c43.1104 38.0416 70.2464 93.1328 70.2464 154.4704C460.4416 330.752 374.9888 420.096 266.24 428.9024c-0.4608 0.0512 -0.9216 0.0512 -1.3312 0.0512 c-8.96 0 -16.384 -7.2704 -16.384 -16.384v-119.9616v-70.2464c0 0 -146.688 0 -195.9936 0c0 0 -0.0512 0 -0.0512 0C43.52 222.3104 36.5056 214.7328 37.2224 205.824 C41.472 150.9376 67.4816 102.0416 106.8544 67.3792zM89.088 -1.7408C89.088 25.609900032 111.094099968 47.616 138.3424 47.616C165.385900032 47.616 187.392 25.609900032 187.392 -1.7408C187.392 -28.681900032 165.385900032 -50.688 138.3424 -50.688C111.094099968 -50.688 89.088 -28.681900032 89.088 -1.7408ZM302.08 -1.7408C302.08 25.609900032 324.086099968 47.616 351.488 47.616C378.377900032 47.616 400.384 25.609900032 400.384 -1.7408C400.384 -28.681900032 378.377900032 -50.688 351.488 -50.688C324.086099968 -50.688 302.08 -28.681900032 302.08 -1.7408Z"/><glyph unicode="&#xE006;" glyph-name="bank16" horiz-adv-x="512" d="M43.3664 311.8592h17.1008v-19.2512c0 -8.4992 6.8608 -15.36 15.36 -15.36h181.6064h181.6064c8.4992 0 15.36 6.8608 15.36 15.36v19.2512h17.1008c8.4992 0 15.36 6.8608 15.36 15.36v24.832 c0 6.7584 -4.4544 12.7488 -10.9056 14.6944L264.0896 430.6432c-2.1504 0.6656 -4.4032 0.9728 -6.656 0.9728c-2.2528 0 -4.4544 -0.3072 -6.656 -0.9728L38.912 366.7456c-6.5024 -1.9456 -10.9056 -7.936 -10.9056 -14.6944 v-24.832C28.0064 318.7712 34.8672 311.8592 43.3664 311.8592zM472.064 5.8368h-17.664V25.088c0 8.4992 -6.8608 15.36 -15.36 15.36h-20.2752V261.8368H360.0896V40.448H284.7744V261.8368H230.0928V40.448H154.7776V261.8368H96.1024V40.448h-20.2752 c-8.4992 0 -15.36 -6.8608 -15.36 -15.36v-19.2512H42.8032c-8.4992 0 -15.36 -6.8608 -15.36 -15.36v-20.8896c0 -8.4992 6.8608 -15.36 15.36 -15.36H472.064c8.4992 0 15.36 6.8608 15.36 15.36v20.8896 C487.424 -1.024 480.5632 5.8368 472.064 5.8368z"/><glyph unicode="&#xE007;" glyph-name="bar26" horiz-adv-x="512" d="M373.6576 177.8688c5.4272 4.7104 11.6224 8.6528 18.5344 11.7248v1.8432c0 13.568 11.008 24.576 24.576 24.576h6.144v6.5024c0 9.8816 -8.0384 17.92 -17.92 17.92H319.3344 c-9.8816 0 -17.92 -8.0384 -17.92 -17.92v-100.5568c0 -9.8816 8.0384 -17.92 17.92 -17.92h29.7984c-0.9216 4.9152 -1.4336 10.0352 -1.4336 15.36c0 11.6736 2.2016 22.5792 6.5024 32.3584 C358.5536 161.5872 365.1072 170.4448 373.6576 177.8688zM175.36 438.016c-9.8816 0 -17.92 -8.0384 -17.92 -17.92v-298.1376c0 -9.8816 8.0384 -17.92 17.92 -17.92h85.6064c9.8816 0 17.92 8.0384 17.92 17.92V420.096c0 9.8816 -8.0384 17.92 -17.92 17.92 H175.36zM134.9632 121.9072V325.5808c0 9.8816 -8.0384 17.92 -17.92 17.92H31.3856c-9.8816 0 -17.92 -8.0384 -17.92 -17.92v-203.6736c0 -9.8816 8.0384 -17.92 17.92 -17.92h85.6064 C126.9248 103.9872 134.9632 112.0256 134.9632 121.9072zM484.4544 77.1072c-5.2736 5.2736 -12.0832 9.7792 -20.1728 13.3632c-7.5264 3.328 -15.7184 4.9664 -23.6032 6.5536c-10.3424 2.0992 -20.1728 4.0448 -26.5728 9.4208 c-0.9216 0.768 -1.792 1.6384 -2.56 2.56c-2.56 3.1232 -3.84 7.0656 -3.84 12.032c0 5.0176 1.4848 9.0112 4.7104 12.5952c2.56 2.8672 6.2976 5.0176 10.5472 6.1952c2.4064 0.6656 4.9664 1.024 7.5776 1.024 c6.656 0 12.5952 -2.304 16.1792 -6.3488c2.6624 -2.9696 4.5568 -7.936 5.5296 -14.3872c0.6656 -4.2496 4.3008 -7.2704 8.448 -7.2704c0.4096 0 0.8704 0.0512 1.28 0.1024l27.4944 4.096 c4.6592 0.7168 7.8848 5.0176 7.2192 9.6768l0 0c-2.3552 16.7424 -9.5232 30.208 -21.2992 39.9872c-6.0416 5.0176 -13.6192 8.9088 -22.1184 11.3664v13.312c0 4.7104 -3.84 8.5504 -8.5504 8.5504H422.912h-6.144 c-4.7104 0 -8.5504 -3.84 -8.5504 -8.5504v-13.1072c-9.3696 -2.6112 -17.5616 -6.8608 -24.0128 -12.544c-13.568 -11.8784 -20.48 -27.5456 -20.48 -46.4896c0 -5.376 0.6144 -10.496 1.792 -15.36 c1.1776 -4.8128 2.9184 -9.3696 5.2736 -13.6704c4.8128 -8.7552 11.7248 -15.7184 20.5824 -20.6848c12.544 -7.0144 24.6784 -10.0864 38.0928 -13.1072c8.8576 -1.9968 18.6368 -4.9152 23.6544 -11.0592 c2.3552 -2.8672 3.5328 -7.1168 3.5328 -12.544c0 -6.7584 -1.8944 -12.2368 -5.7344 -16.64c-3.584 -4.096 -8.8576 -6.8608 -14.7968 -7.7824c-1.4336 -0.2048 -2.8672 -0.3072 -4.352 -0.3072c-8.4992 0 -16.3328 3.584 -20.992 9.5744 c-2.1504 2.7648 -5.12 8.704 -6.912 21.1456c-0.6144 4.2496 -4.3008 7.3216 -8.448 7.3216c-0.512 0 -0.9728 -0.0512 -1.4848 -0.1536l-26.88 -4.6592c-4.3008 -0.768 -7.3728 -4.6592 -7.0656 -9.0624 c0.9216 -13.2608 4.4544 -24.7808 10.496 -34.2528c6.0928 -9.5744 13.568 -16.6912 22.2208 -21.1456c4.9152 -2.5088 10.1376 -4.5568 15.616 -6.0416v-11.008c0 -4.7104 3.84 -8.5504 8.5504 -8.5504h27.8528 c4.7104 0 8.5504 3.84 8.5504 8.5504v10.752c11.9296 3.328 22.3232 9.3696 30.3616 17.8176c11.7248 12.288 17.664 27.7504 17.664 45.9264c0 8.2944 -1.4336 16.1792 -4.2496 23.3984 C494.0288 65.2288 489.8304 71.68 484.4544 77.1072z"/><glyph unicode="&#xE008;" glyph-name="basket32" horiz-adv-x="512" d="M481.3824 182.0672H269.312v-33.792c20.8384 -1.3824 41.1136 -6.1952 60.3648 -14.336c22.3744 -9.472 42.496 -23.04 59.7504 -40.2944c14.3872 -14.3872 26.1632 -30.72 35.1744 -48.6912 C457.472 81.8176 478.4128 129.536 481.3824 182.0672zM405.6064 363.6224C368.896 396.1344 321.4848 416.768 269.312 419.7376V266.24c38.5536 2.9696 74.3936 19.4048 101.9904 47.0528C386.048 327.9872 397.568 345.088 405.6064 363.6224zM243.712 207.6672v32.8704c-20.8384 1.3824 -41.1136 6.1952 -60.3648 14.336c-22.3744 9.472 -42.496 23.04 -59.7504 40.2944c-14.5408 14.5408 -26.4192 31.0784 -35.4304 49.2544 C55.4496 307.6608 34.6112 260.0448 31.6416 207.6672H243.712zM88.4224 44.9536c9.0112 17.9712 20.7872 34.3552 35.1744 48.6912c17.2544 17.2544 37.376 30.8224 59.7504 40.2944c19.2512 8.1408 39.5264 12.9536 60.3648 14.336v33.792H31.6416 C34.6112 129.536 55.552 81.8176 88.4224 44.9536zM269.312 207.6672h212.0704c-2.9184 52.3776 -23.7568 99.9936 -56.4736 136.8064c-9.0624 -18.2272 -20.9408 -34.7648 -35.4304 -49.2544c-17.2544 -17.2544 -37.376 -30.8224 -59.7504 -40.2944 c-19.2512 -8.1408 -39.5264 -12.9536 -60.3648 -14.336V207.6672zM371.3024 75.5712c-27.648 27.648 -63.4368 44.0832 -101.9904 47.0528v-152.576c52.0192 2.9184 99.328 23.5008 136.0384 55.808C397.312 44.1344 385.8944 60.9792 371.3024 75.5712zM141.7216 313.2928c27.648 -27.648 63.4368 -44.0832 101.9904 -47.0528V419.7376C191.5392 416.768 144.128 396.1344 107.4176 363.6224C115.456 345.088 126.976 327.9872 141.7216 313.2928zM243.712 122.624c-38.5536 -2.9696 -74.3936 -19.4048 -101.9904 -47.0528c-14.5408 -14.5408 -26.0096 -31.3856 -34.048 -49.7152c36.7104 -32.3584 84.0192 -52.8896 136.0384 -55.808V122.624z"/><glyph unicode="&#xE009;" glyph-name="bills" horiz-adv-x="512" d="M476.4672 297.5232h-22.1184v-126.72c0 -19.7632 -16.0768 -35.84 -35.84 -35.84H77.312v-22.1184c0 -11.3152 9.1648 -20.48 20.48 -20.48h378.624c11.3152 0 20.48 9.1648 20.48 20.48V277.0432 C496.9472 288.3072 487.7824 297.5232 476.4672 297.5232zM418.4576 150.3232c11.3152 0 20.48 9.1648 20.48 20.48V297.5232v37.4784c0 11.3152 -9.1648 20.48 -20.48 20.48H39.8336c-11.3152 0 -20.48 -9.1648 -20.48 -20.48v-164.1984 c0 -11.3152 9.1648 -20.48 20.48 -20.48H77.312H418.4576zM201.2672 308.2752c4.352 3.7888 10.1376 6.5536 16.7936 7.9872v4.3008c0 4.864 3.9936 8.8576 8.8576 8.8576h3.84 c4.864 0 8.8576 -3.9936 8.8576 -8.8576v-4.4032c6.144 -1.3824 11.52 -3.8912 15.6672 -7.3216c3.7376 -3.1232 6.7072 -6.912 8.8576 -11.3152c0.5632 -1.1776 1.0752 -2.3552 1.536 -3.584 c0.8704 -2.4576 0.6144 -5.1712 -0.7168 -7.4752c-1.3824 -2.304 -3.6864 -3.84 -6.2976 -4.2496l-3.7376 -0.5632c-0.4608 -0.0512 -0.8704 -0.1024 -1.3312 -0.1024c-3.7888 0 -7.168 2.4064 -8.3968 5.9904 c-0.8192 2.4064 -1.8944 4.4032 -3.2256 5.888c-1.5872 1.792 -3.6864 3.1744 -6.0416 4.0448c-2.2016 0.8192 -4.608 1.28 -7.2192 1.28c-2.6112 0 -5.12 -0.4608 -7.424 -1.28c-2.816 -1.024 -5.2736 -2.6112 -7.1168 -4.6592 c-2.6624 -3.0208 -3.9936 -6.5024 -3.9936 -10.6496c0 -4.096 1.1264 -7.4752 3.328 -10.1888c4.8128 -5.7856 13.0048 -7.424 20.992 -9.0624c4.9152 -0.9728 9.984 -1.9968 14.4896 -3.9936 c4.8128 -2.0992 8.8064 -4.7616 11.8784 -7.8336c3.1232 -3.1232 5.5296 -6.8608 7.2192 -11.1616c1.6384 -4.2496 2.5088 -8.8576 2.5088 -13.7728c0 -10.752 -3.4816 -19.8656 -10.3936 -27.0848 c-5.3248 -5.5808 -12.3904 -9.4208 -20.6336 -11.1104v-2.816c0 -4.864 -3.9936 -8.8576 -8.8576 -8.8576h-3.84c-4.864 0 -8.8576 3.9936 -8.8576 8.8576v2.9696c-4.3008 0.9216 -8.3968 2.4064 -12.1344 4.3008 c-4.9664 2.56 -9.3184 6.7072 -12.9024 12.3392c-2.3552 3.7376 -4.096 8.0896 -5.12 12.9024c-0.512 2.3552 -0.0512 4.7616 1.28 6.7584c1.3312 1.9968 3.4816 3.3792 5.8368 3.7888l3.84 0.6656c0.512 0.1024 1.024 0.1536 1.536 0.1536 c4.0448 0 7.5776 -2.7648 8.5504 -6.656c1.024 -3.9936 2.3552 -7.0656 3.9936 -9.1648c3.7376 -4.7616 9.8816 -7.6288 16.5376 -7.6288c1.1264 0 2.2528 0.1024 3.3792 0.256c4.7104 0.7168 8.9088 2.9184 11.8272 6.2464 c3.072 3.4816 4.6592 7.936 4.6592 13.2096c0 4.4032 -1.0752 7.936 -3.1232 10.496c-3.9424 4.864 -11.008 7.0144 -17.3568 8.448c-8.3968 1.8944 -15.9232 3.84 -23.6032 8.0896 c-5.0688 2.816 -9.0624 6.8096 -11.8272 11.8784c-2.7136 4.9664 -4.096 10.6496 -4.096 16.9472c0 6.0928 1.2288 11.5712 3.584 16.4352C194.8672 301.5168 197.6832 305.152 201.2672 308.2752z"/><glyph unicode="&#xE00A;" glyph-name="birthday2" horiz-adv-x="512" d="M462.5408 281.7024H367.4624c9.472 2.7648 16.9984 6.2464 22.6816 10.496c17.3056 12.8 28.5184 31.5904 31.6928 52.8896c3.1744 21.2992 -2.1504 42.496 -14.9504 59.8016 c-7.6288 10.2912 -17.664 18.688 -29.0816 24.2688c-11.008 5.4272 -23.3472 8.2944 -35.6864 8.2944c-17.3568 0 -33.9456 -5.4784 -47.9232 -15.872c-11.2128 -8.2944 -21.9136 -24.5248 -32.4096 -49.152h-13.4144 c-10.496 24.6784 -21.1968 40.8576 -32.4096 49.152c-13.9776 10.3936 -30.5664 15.872 -47.9232 15.872c-12.288 0 -24.6272 -2.8672 -35.6864 -8.2944c-11.4176 -5.632 -21.4528 -14.0288 -29.0816 -24.2688 c-12.8 -17.3056 -18.1248 -38.5024 -14.9504 -59.8016c3.1744 -21.2992 14.4384 -40.0384 31.6928 -52.8896c5.6832 -4.1984 13.2096 -7.68 22.6816 -10.496H50.4832c-12.7488 0 -23.04 -10.2912 -23.04 -23.04v-123.392h214.9888 V273.2032c5.4784 0.1536 21.2992 0.0512 28.16 -0.0512v-137.9328h214.9888v123.392C485.5808 271.36 475.2384 281.7024 462.5408 281.7024zM175.36 309.0944c-24.2688 3.072 -32.9216 7.8848 -35.4816 9.8304 c-10.1376 7.5264 -16.7424 18.5344 -18.5856 31.0272c-1.8432 12.4928 1.28 24.9344 8.8064 35.072c9.0112 12.1344 22.8864 19.0976 37.9904 19.0976c10.1888 0 19.9168 -3.2256 28.1088 -9.3184 c7.0656 -5.2224 16.0768 -21.1968 25.0368 -43.8784c-3.2768 -5.8368 -5.12 -12.544 -5.12 -19.6608c0 -9.4208 3.2256 -18.0736 8.6528 -24.9344C206.08 306.3808 189.0816 307.3536 175.36 309.0944zM288.3072 306.3296c5.376 6.8608 8.6016 15.5136 8.6016 24.9344c0 8.3456 -2.5088 16.0768 -6.8096 22.4768c8.5504 21.1968 17.152 36.0448 23.9104 41.0624c8.192 6.0928 17.92 9.3184 28.1088 9.3184 c15.1552 0 29.0304 -6.9632 37.9904 -19.0976c7.5264 -10.1376 10.6496 -22.5792 8.8064 -35.072c-1.8432 -12.4928 -8.448 -23.5008 -18.5856 -31.0272c-2.6112 -1.9456 -11.264 -6.7584 -35.4816 -9.8304 C321.8432 307.4048 305.8176 306.4832 288.3072 306.3296zM270.592 -39.3728h191.9488c12.7488 0 23.04 10.2912 23.04 23.04v123.392H270.592V-39.3728zM27.4432 -16.3328c0 -12.7488 10.2912 -23.04 23.04 -23.04h191.9488v146.432H27.4432V-16.3328z"/><glyph unicode="&#xE00B;" glyph-name="briefcase66" horiz-adv-x="512" d="M319.1296 196.0448H253.4912v-16.4352c0 -9.4208 -7.6288 -16.9984 -16.9984 -16.9984h-22.1696c-9.4208 0 -16.9984 7.6288 -16.9984 16.9984v16.4352H8.96v-77.312 c0 -11.3152 9.1648 -20.48 20.48 -20.48h228.0448c-2.816 8.6528 -1.1776 18.0224 4.5568 25.344L319.1296 196.0448zM8.96 350.6176v-136.704h324.3008l33.1264 42.0864c5.2224 6.656 13.056 10.4448 21.5552 10.4448c8.448 0 16.2816 -3.7888 21.5552 -10.4448l32.4608 -41.1648V350.6176 c0 11.3152 -9.1648 20.48 -20.48 20.48H314.368V406.9888c0 19.6608 -15.9744 35.6352 -35.6352 35.6352H172.0832c-19.6608 0 -35.6352 -15.9744 -35.6352 -35.6352v-35.8912h-107.008 C18.1248 371.0976 8.96 361.9328 8.96 350.6176zM167.68 406.9888c0 2.4064 1.9456 4.4032 4.4032 4.4032h106.6496c2.4064 0 4.4032 -1.9456 4.4032 -4.4032v-35.8912H167.68V406.9888zM441.856 190.0032l-4.7104 5.9904l-14.1312 17.92l-25.6512 32.5632c-2.4064 3.072 -5.9392 4.608 -9.472 4.608c-3.5328 0 -7.0656 -1.536 -9.472 -4.608L352.768 213.9648l-14.1312 -17.92L274.1248 114.0736 c-4.0448 -5.12 -3.072 -11.776 0.768 -15.8208c2.0992 -2.2016 5.12 -3.6864 8.704 -3.6864h24.9856v-76.6976c0 -6.656 5.376 -12.032 12.032 -12.032h134.6048c6.656 0 12.032 5.376 12.032 12.032V94.5664h24.9856 c10.0864 0 15.7184 11.6224 9.472 19.5072L441.856 190.0032z"/><glyph unicode="&#xE00C;" glyph-name="camper" horiz-adv-x="512" d="M10.3424 64.3072c0 -9.7792 7.936 -17.7152 17.7152 -17.7152h119.5008c0 20.0704 7.8336 38.9632 22.016 53.1456c14.1824 14.1824 33.0752 22.016 53.1456 22.016 c20.0704 0 38.9632 -7.8336 53.1456 -22.016c14.1824 -14.1824 22.016 -33.0752 22.016 -53.1456h18.432v0h168.0896c8.4992 0 15.36 6.8608 15.36 15.36v7.68c0 8.4992 -6.8608 15.36 -15.36 15.36h-49.3568V241.408 c0 70.144 -56.8832 127.0272 -127.0272 127.0272H137.4208c-70.144 0 -127.0272 -56.8832 -127.0272 -127.0272V64.3072zM379.6992 238.336v-61.2352H241.92V312.5248h63.5904 C346.4704 312.5248 379.6992 279.296 379.6992 238.336zM65.7408 238.336c0 40.96 33.2288 74.1888 74.1888 74.1888h63.5904v-135.424H65.7408V238.336zM222.72 -13.2096c33.024 0 59.8016 26.7776 59.8016 59.8016S255.744 106.3936 222.72 106.3936c-33.024 0 -59.8016 -26.7776 -59.8016 -59.8016 C162.9184 13.568 189.696 -13.2096 222.72 -13.2096zM222.72 68.5056c12.0832 0 21.9136 -9.8304 21.9136 -21.9136c0 -12.0832 -9.8304 -21.9136 -21.9136 -21.9136 c-12.0832 0 -21.9136 9.8304 -21.9136 21.9136C200.8064 58.6752 210.6368 68.5056 222.72 68.5056z"/><glyph unicode="&#xE00D;" glyph-name="cheese14" horiz-adv-x="512" d="M447.4368 320.3584c1.8432 0.3072 3.6864 0.4608 5.5296 0.4608h0h0c1.8944 0 3.7888 -0.1536 5.5808 -0.4608L265.728 403.6096c-5.9392 2.56 -12.8 1.7408 -17.9712 -2.2016L56.3712 255.7952 C57.5488 256.1536 447.4368 320.3584 447.4368 320.3584zM436.3264 121.9584c13.0048 0 24.9856 -4.7104 34.56 -12.6976V286.976c0 8.5504 -5.888 15.5136 -13.6192 17.408c-1.3824 0.3584 -2.816 0.512 -4.2496 0.512c-0.9728 0 -1.9456 -0.1024 -2.9696 -0.256 L69.0176 242.0224l-6.5024 -1.0752c-8.6528 -1.4336 -15.0016 -8.9088 -15.0016 -17.664v-110.5408c7.2192 5.8368 16.2304 9.2672 25.9584 9.2672c23.9616 0 43.3664 -20.8384 43.3664 -46.592 c0 -25.7536 -19.4048 -46.592 -43.3664 -46.592c-9.728 0 -18.688 3.4304 -25.9584 9.2672v-32.8192c0 -10.0352 8.192 -17.92 17.8688 -17.92c0.9728 0 1.9456 0.1024 2.9696 0.256l315.392 51.8656 c-2.4576 6.8096 -3.7888 14.1824 -3.7888 21.9136C379.904 94.8224 405.1456 121.9584 436.3264 121.9584zM257.024 97.0752c-19.3024 0 -34.9184 16.7936 -34.9184 37.5296 c0 20.736 15.616 37.5296 34.9184 37.5296s34.9184 -16.7936 34.9184 -37.5296C291.9424 113.8688 276.3264 97.0752 257.024 97.0752zM369.0496 183.296c-6.0416 0 -11.7248 1.6384 -16.6912 4.5568 c-10.8544 6.3488 -18.2272 18.7392 -18.2272 32.9728c0 20.736 15.616 37.5296 34.9184 37.5296c13.1072 0 24.4736 -7.7312 30.464 -19.2c2.816 -5.4272 4.4544 -11.6736 4.4544 -18.3296 C403.968 200.0896 388.352 183.296 369.0496 183.296z"/><glyph unicode="&#xE00E;" glyph-name="coins1" horiz-adv-x="512" d="M181.9648 132.1984c-2.0992 0 -4.2496 -0.0512 -6.4 -0.0512c-44.6464 0 -86.784 5.2224 -118.6816 14.6944c-16.4352 4.864 -29.5936 10.7008 -39.1168 17.408 c-1.3824 0.9728 -2.6624 1.9456 -3.8912 2.9184v-73.9328c0 -26.4704 72.3968 -47.9232 161.6896 -47.9232c4.5568 0 9.0624 0.0512 13.5168 0.1536c-6.5024 18.1248 -9.7792 37.1712 -9.7792 56.6784 C179.3024 112.3328 180.1728 122.368 181.9648 132.1984zM228.6592 221.3376c6.6048 6.6048 13.6704 12.5952 21.1456 17.92c-22.8352 -3.3792 -48.128 -5.1712 -74.24 -5.1712c-44.6464 0 -86.784 5.2224 -118.6816 14.6944 c-16.4352 4.864 -29.5936 10.7008 -39.1168 17.408c-1.3824 0.9728 -2.6624 1.9456 -3.8912 2.9184v-73.6256c0 -2.1504 0.512 -4.2496 1.4336 -6.3488c10.496 -23.5008 78.2336 -41.5744 160.256 -41.5744 c3.328 0 6.656 0.0512 9.9328 0.1024c1.8944 6.8096 4.2496 13.568 7.0656 20.1216c3.1232 7.424 6.7584 14.5408 10.9056 21.3504C210.432 200.7552 218.88 211.5584 228.6592 221.3376zM175.5648 329.984c-44.6464 0 -86.784 5.2224 -118.6816 14.6944c-16.4352 4.864 -29.5936 10.7008 -39.1168 17.408c-1.3824 0.9728 -2.6624 1.9456 -3.8912 2.9184V306.688v-7.68v-1.6384 c0 -2.048 0.4608 -4.096 1.28 -6.0416c10.0352 -23.6032 78.0288 -41.8816 160.4096 -41.8816c82.3808 0 150.3744 18.2784 160.4096 41.8816c0.8192 1.9968 1.28 3.9936 1.28 6.0416V299.008v7.68V365.0048 c-1.2288 -1.024 -2.5088 -1.9968 -3.8912 -2.9184c-9.5232 -6.656 -22.6816 -12.4928 -39.1168 -17.408C262.3488 335.2064 220.2112 329.984 175.5648 329.984zM337.2544 393.2672c0 2.6112 -0.7168 5.1712 -2.0992 7.68c-1.4336 2.6624 -3.584 5.2224 -6.4 7.68c-21.6064 18.944 -82.0224 32.5632 -153.1904 32.5632c-71.168 0 -131.6352 -13.6192 -153.1904 -32.5632 c-2.816 -2.4576 -4.9664 -5.0176 -6.4 -7.68c-1.3824 -2.5088 -2.0992 -5.0688 -2.0992 -7.68v0c0 -26.4704 72.3968 -47.9232 161.6896 -47.9232C264.8576 345.344 337.2544 366.7968 337.2544 393.2672 L337.2544 393.2672zM352.6144 255.8976c-1.5872 0.0512 -3.1744 0.1024 -4.8128 0.1024c-0.9728 0 -1.9456 0 -2.8672 -0.0512c-2.56 -0.0512 -5.12 -0.1536 -7.68 -0.3072c-48.2816 -3.2768 -90.4704 -28.8256 -116.3264 -66.5088 c-8.5504 -12.4416 -15.36 -26.2656 -19.968 -41.0112c-0.8192 -2.56 -1.536 -5.1712 -2.2016 -7.7824c-0.6656 -2.56 -1.2288 -5.1712 -1.7408 -7.7312c-1.9968 -9.8304 -3.0208 -20.0192 -3.0208 -30.4128 c0 -19.8144 3.7376 -38.7072 10.5472 -56.064c22.4256 -57.1904 78.1312 -97.7408 143.2576 -97.7408c84.9408 0 153.8048 68.864 153.8048 153.8048 C501.6576 185.4976 435.3536 253.3376 352.6144 255.8976zM392.8576 28.1088c-7.7312 -8.1408 -18.2784 -13.5168 -30.3616 -15.6672v-6.144c0 -5.632 -4.5568 -10.1888 -10.1888 -10.1888h-5.5296 c-5.632 0 -10.1888 4.5568 -10.1888 10.1888v6.4c-6.656 1.28 -13.056 3.4304 -18.7904 6.3488c-6.7584 3.4816 -12.6464 9.1648 -17.5616 16.8448c-3.2768 5.12 -5.632 11.0592 -7.0656 17.7152 c-0.5632 2.5088 -0.1024 5.0176 1.0752 7.0656c1.4336 2.56 3.9936 4.4544 7.1168 5.0176l5.4784 0.9728c1.1264 0.2048 2.2528 0.2048 3.2768 0c3.9424 -0.6144 7.2704 -3.4816 8.2944 -7.5264 c1.536 -6.0928 3.6352 -10.8032 6.2464 -14.1312c5.8368 -7.4752 15.4624 -11.9296 25.7536 -11.9296h0c1.7408 0 3.4816 0.1536 5.2224 0.4096c7.3728 1.1264 13.9776 4.608 18.5344 9.8304 c4.864 5.5296 7.3216 12.4928 7.3216 20.6848c0 6.912 -1.6896 12.544 -5.0688 16.6912c-6.1952 7.5776 -16.7936 10.8544 -26.368 13.0048c-4.4544 1.024 -8.704 1.9968 -12.9024 3.1744 c-6.9632 1.9968 -13.6704 4.4544 -20.3776 8.192c-6.912 3.84 -12.288 9.2672 -16.0256 16.0768c-3.6864 6.7584 -5.5808 14.5408 -5.5808 23.1424c0 1.024 0.0512 1.9968 0.0512 2.9696 c0.1536 2.9184 0.512 5.6832 1.024 8.3456c0.6656 3.1744 1.5872 6.1952 2.816 9.0624c2.7136 6.3488 6.8608 11.9808 12.3392 16.7936c3.584 3.1232 7.8848 5.7344 12.7488 7.7312c3.7888 1.5872 7.936 2.7648 12.288 3.584 v8.2944c0 1.2288 0.256 2.4576 0.6656 3.5328c1.2288 3.328 4.1472 5.7856 7.68 6.4512c0.6144 0.1024 1.2288 0.1536 1.8432 0.1536h5.5296c0.1024 0 0.2048 0 0.3072 0 c5.4784 -0.1536 9.8816 -4.6592 9.8816 -10.1376v-8.448c9.1648 -1.792 17.3056 -5.376 23.4496 -10.4448c6.5024 -5.376 11.2128 -12.1856 14.1312 -20.3776c2.1504 -5.9904 -1.792 -12.4928 -8.0896 -13.4144 l-5.376 -0.8192c-4.864 -0.7168 -9.5744 2.1504 -11.1104 6.7584c-1.28 3.7888 -3.0208 6.912 -5.1712 9.3184c-4.864 5.4272 -12.4928 8.5504 -20.9408 8.5504c-2.56 0 -5.0688 -0.3072 -7.4752 -0.8192 c-1.5872 -0.3584 -3.1232 -0.8192 -4.608 -1.3824c-4.1984 -1.6384 -7.8848 -4.0448 -10.7008 -7.168c-1.3312 -1.4848 -2.4064 -3.0208 -3.328 -4.6592c-2.048 -3.6864 -3.072 -7.7824 -3.072 -12.3392c0 -6.4512 1.792 -11.9296 5.376 -16.2816 c3.1744 -3.7888 7.168 -6.4512 11.6736 -8.3968c6.144 -2.6624 13.1072 -4.096 19.968 -5.4784c6.912 -1.3824 14.08 -2.816 20.3264 -5.5808c6.6048 -2.9184 12.1344 -6.5536 16.3328 -10.752 c4.2496 -4.2496 7.5264 -9.3184 9.8304 -15.1552c2.2528 -5.7856 3.4304 -12.1344 3.4304 -18.8416C407.04 50.5344 402.2784 38.0416 392.8576 28.1088z"/><glyph unicode="&#xE00F;" glyph-name="commerce" horiz-adv-x="512" d="M252.416 432.0768L75.4688 336.1792l7.7824 1.9456l211.4048 53.6064l-17.92 33.0752C272.0256 433.5616 261.12 436.7872 252.416 432.0768zM420.0448 331.8272l-13.4144 52.9408c-2.048 8.1408 -9.3696 13.5168 -17.3568 13.5168c-1.4336 0 -2.9184 -0.1536 -4.4032 -0.5632l-82.176 -20.8384l-177.8688 -45.1072h202.2912H420.0448zM300.1344 104.9088v90.112c0 18.7904 15.2576 34.048 34.048 34.048h111.9232h8.448h8.448h6.7584V298.5472c0 9.8816 -8.0384 17.92 -17.92 17.92H440.832h-8.448H423.936H335.4624H88.7296 h-8.448h-8.448h-32.768h-0.9216c-6.6048 0 -12.3392 -3.584 -15.4624 -8.8576c-1.536 -2.6624 -2.4576 -5.7344 -2.4576 -9.0624v-2.8672v-294.3488c0 -9.8816 8.0384 -17.92 17.92 -17.92h413.6448 c9.8816 0 17.92 8.0384 17.92 17.92V70.8096H334.1824C315.392 70.8096 300.1344 86.1184 300.1344 104.9088zM485.12 210.3808c-2.304 1.3824 -4.9152 2.2016 -7.68 2.4576c-0.512 0.0512 -0.9728 0.0512 -1.4848 0.0512h-6.1952h-2.6624h-8.448h-20.2752H334.1824c-9.8816 0 -17.92 -8.0384 -17.92 -17.92v-90.112 c0 -9.8816 8.0384 -17.92 17.92 -17.92h135.5776h6.1952c0.512 0 0.9728 0.0512 1.4848 0.0512c2.7648 0.2048 5.376 1.0752 7.68 2.4576c5.2224 3.1232 8.7552 8.8576 8.7552 15.4112v90.112 C493.8752 201.5232 490.3424 207.2576 485.12 210.3808zM378.88 120.8832c-16.0256 0 -29.0816 13.0048 -29.0816 29.0816c0 16.0256 13.0048 29.0816 29.0816 29.0816 c16.0256 0 29.0816 -13.0048 29.0816 -29.0816C407.9616 133.888 394.9568 120.8832 378.88 120.8832z"/><glyph unicode="&#xE010;" glyph-name="credit2" horiz-adv-x="512" d="M66.5088 222.4128c0 19.7632 16.0768 35.84 35.84 35.84h347.0336l-41.0624 129.9968C404.48 400.3328 391.5264 407.0912 379.392 403.2512l-351.488 -111.104 c-12.1344 -3.84 -18.8416 -16.7936 -15.0016 -28.928l53.6576 -169.6768V222.4128zM81.8688 14.7456c0 -11.3152 9.1648 -20.48 20.48 -20.48h373.76c11.3152 0 20.48 9.1648 20.48 20.48v27.648h-414.72V14.7456zM496.5888 222.4128c0 11.3152 -9.1648 20.48 -20.48 20.48h-21.8624H102.3488c-11.3152 0 -20.48 -9.1648 -20.48 -20.48v-141.568h102.2464h312.4736V222.4128z"/><glyph unicode="&#xE011;" glyph-name="cruse" horiz-adv-x="512" d="M320.1024 417.3312c0 11.3152 -9.1648 20.48 -20.48 20.48H194.9184c-11.3152 0 -20.48 -9.1648 -20.48 -20.48v-47.9232h145.664V417.3312zM136.192 351.488c-11.3152 0 -20.48 -9.1648 -20.48 -20.48v-110.592L175.872 247.296l54.784 24.4736c5.2736 2.3552 10.8544 3.5328 16.5888 3.5328c5.7344 0 11.3664 -1.1776 16.5888 -3.5328l54.784 -24.4736 l60.2112 -26.88v110.592c0 11.3152 -9.1648 20.48 -20.48 20.48h-38.2976H174.4384H136.192zM413.6448 182.6816L255.6416 253.2352c-2.6624 1.1776 -5.4784 1.792 -8.3456 1.792c-2.8672 0 -5.6832 -0.6144 -8.3456 -1.792L80.9472 182.6816c-9.728 -4.352 -14.4896 -15.4624 -10.9568 -25.4976 l66.9696 -190.3616c2.8672 -8.192 10.6496 -13.6704 19.3024 -13.6704H247.296h91.0336c8.704 0 16.4352 5.4784 19.3024 13.6704L424.6016 157.184C428.1344 167.2704 423.3728 178.3808 413.6448 182.6816zM308.2752 180.5312c9.2672 0 16.7424 -7.4752 16.7424 -16.7424c0 -9.2672 -7.4752 -16.7424 -16.7424 -16.7424c-9.2672 0 -16.7424 7.4752 -16.7424 16.7424 C291.5328 173.056 299.008 180.5312 308.2752 180.5312zM184.064 180.5312c9.2672 0 16.7424 -7.4752 16.7424 -16.7424c0 -9.2672 -7.4752 -16.7424 -16.7424 -16.7424 c-9.2672 0 -16.7424 7.4752 -16.7424 16.7424C167.2704 173.056 174.7968 180.5312 184.064 180.5312z"/><glyph unicode="&#xE012;" glyph-name="currency13" horiz-adv-x="512" d="M220.928 160.512v10.8032v39.4752h50.3296V191.488c10.3936 8.96 21.9648 16.3328 34.4576 22.016V418.304c0 9.9328 -8.0384 17.9712 -17.9712 17.9712H35.328 c-9.9328 0 -17.9712 -8.0384 -17.9712 -17.9712v-366.7456c0 -9.9328 8.0384 -17.9712 17.9712 -17.9712h193.536c-5.376 15.36 -8.1408 31.4368 -8.1408 47.9232c0 2.4576 0.0512 4.9152 0.2048 7.3728V160.512zM271.2576 242.176h-50.3296v50.3296h50.3296V242.176zM102.144 78.7968h-50.3296v50.3296h50.3296V78.7968zM102.144 160.512h-50.3296v50.3296h50.3296V160.512zM102.144 242.176h-50.3296 v50.3296h50.3296V242.176zM186.6752 78.7968h-50.3296v50.3296h50.3296V78.7968zM186.6752 160.512h-50.3296v50.3296h50.3296V160.512zM186.6752 242.176h-50.3296v50.3296h50.3296V242.176zM51.8144 334.0288v65.024h219.4432v-65.024H51.8144zM245.2992 33.5872c19.0464 -47.8208 65.792 -81.664 120.4224 -81.664c71.5776 0 129.5872 58.0096 129.5872 129.5872S437.2992 211.1488 365.7216 211.1488 c-21.6576 0 -42.0864 -5.3248 -60.0064 -14.6944c-12.9024 -6.7584 -24.576 -15.616 -34.4576 -26.1632c-21.76 -23.1936 -35.1232 -54.3744 -35.1232 -88.7296c0 -0.9216 0 -1.792 0.0512 -2.7136 C236.4928 62.8736 239.6672 47.616 245.2992 33.5872zM389.888 63.3856c-5.2224 6.4 -14.1824 9.1136 -22.2208 10.9568c-9.984 2.2528 -18.9952 4.5568 -28.0064 9.5744 c-5.7856 3.2256 -10.3424 7.7824 -13.4656 13.5168c-3.1232 5.6832 -4.7104 12.2368 -4.7104 19.456c0 12.8512 4.608 23.3984 13.7216 31.3344c5.376 4.7104 12.7488 7.9872 21.0944 9.5232v7.0144 c0 4.7104 3.84 8.5504 8.5504 8.5504h4.6592c4.7104 0 8.5504 -3.84 8.5504 -8.5504V157.696c7.7312 -1.4848 14.592 -4.5056 19.7632 -8.8064c5.4784 -4.5568 9.472 -10.2912 11.9296 -17.152 c1.8432 -5.0688 -1.4848 -10.496 -6.8096 -11.3152l-4.5056 -0.6656c-4.096 -0.6144 -8.0384 1.792 -9.3696 5.7344c-1.0752 3.1744 -2.56 5.8368 -4.352 7.8848c-4.096 4.5568 -10.5472 7.2192 -17.664 7.2192 c-7.5776 0 -14.7456 -2.9696 -19.2 -7.936c-3.6352 -4.0448 -5.376 -8.7552 -5.376 -14.336c0 -5.4784 1.536 -10.0864 4.5568 -13.7216c6.2976 -7.5776 16.64 -9.6768 26.624 -11.6736 c5.8368 -1.1776 11.8784 -2.4064 17.1008 -4.7104c5.5808 -2.4576 10.1888 -5.5296 13.7728 -9.0624c3.584 -3.584 6.3488 -7.8848 8.2432 -12.7488c1.8944 -4.864 2.8672 -10.24 2.8672 -15.872 c0 -12.4416 -4.0448 -22.9888 -11.9808 -31.3344c-6.5024 -6.8608 -15.4112 -11.3664 -25.6 -13.2096v-5.1712c0 -4.7104 -3.84 -8.5504 -8.5504 -8.5504h-4.6592c-4.7104 0 -8.5504 3.84 -8.5504 8.5504V6.144 c-5.632 1.0752 -11.008 2.8672 -15.8208 5.376c-5.6832 2.9184 -10.6496 7.68 -14.7968 14.1824c-2.7648 4.3008 -4.7104 9.3184 -5.9392 14.9504c-1.024 4.7104 2.1504 9.3696 6.912 10.1888l4.608 0.8192 c4.4032 0.768 8.6528 -1.9968 9.7792 -6.3488c1.3312 -5.12 3.072 -9.1136 5.2736 -11.9296c4.9152 -6.2976 13.0048 -10.0864 21.7088 -10.0864h0c1.4848 0 2.9696 0.1024 4.4032 0.3072 c6.1952 0.9216 11.776 3.8912 15.616 8.2944c4.096 4.6592 6.144 10.496 6.144 17.408C394.1376 55.1936 392.704 59.904 389.888 63.3856z"/><glyph unicode="&#xE013;" glyph-name="cycling5" horiz-adv-x="512" d="M233.1136 338.2272l-101.12 -108.032c-7.3728 -10.752 -4.608 -25.3952 6.0928 -32.7168l101.8368 -69.7856v-67.84c0 -12.9024 10.24 -23.7056 23.1424 -23.9616 c13.2096 -0.2048 23.9616 10.3936 23.9616 23.552V140.032c0 7.7824 -3.84 15.0528 -10.24 19.4048L211.456 204.2368l54.9888 58.3168l28.16 -64.1536c3.7376 -8.5504 12.2368 -14.08 21.5552 -14.08H401.92 c12.9024 0 23.7056 10.24 23.9616 23.1424c0.2048 13.2096 -10.3936 23.9616 -23.552 23.9616l-70.7072 0c-9.3184 21.1968 -19.2512 42.1888 -27.904 63.6928c-4.4032 10.8544 -6.8608 15.5648 -14.9504 23.04 c-1.6384 1.536 -13.056 11.9808 -23.2448 21.2992C256.1536 347.9552 241.7152 347.392 233.1136 338.2272zM275.456 380.416C275.456 410.10682816 299.52517184 434.176 329.5744 434.176C358.90682816 434.176 382.976 410.10682816 382.976 380.416C382.976 350.72517184 358.90682816 326.656 329.5744 326.656C299.52517184 326.656 275.456 350.72517184 275.456 380.416ZM12.8 66.7136C12.8 121.929339648 57.270660352 166.4 112.2816 166.4C166.985339648 166.4 211.456 121.929339648 211.456 66.7136C211.456 12.214660352 166.985339648 -32.256 112.2816 -32.256C57.270660352 -32.256 12.8 12.214660352 12.8 66.7136ZM300.544 66.7136C300.544 121.929339648 345.014660352 166.4 400.2304 166.4C454.729339648 166.4 499.2 121.929339648 499.2 66.7136C499.2 12.214660352 454.729339648 -32.256 400.2304 -32.256C345.014660352 -32.256 300.544 12.214660352 300.544 66.7136Z"/><glyph unicode="&#xE014;" glyph-name="diet1" horiz-adv-x="512" d="M48.1792 379.6992c-39.7312 -46.2336 -31.8976 -101.1712 -31.5392 -103.5264c1.28 -8.448 8.4992 -14.848 16.7936 -14.848h379.2896c8.2432 0 15.5136 6.3488 16.8448 14.848 c0.3584 2.304 8.0896 57.1904 -31.5392 103.3216c-34.816 40.5504 -93.6448 61.0816 -174.8992 61.0816C141.7216 440.6272 82.8928 420.1472 48.1792 379.6992zM353.3824 338.944 c7.1168 -5.376 8.4992 -15.5136 3.1232 -22.6304c-5.376 -7.1168 -15.5136 -8.4992 -22.6304 -3.1232c-4.1472 3.1232 -6.3488 7.9872 -6.4 12.8512l-0.1024 32.6144L353.3824 338.944zM208.5888 330.9568 l14.4896 29.2352l14.4896 -29.2352c3.9424 -7.9872 0.7168 -17.7152 -7.3216 -21.6576c-7.9872 -3.9424 -17.7152 -0.7168 -21.6576 7.3216C206.2848 321.2288 206.4384 326.6048 208.5888 330.9568zM92.7232 338.944 l26.0096 19.712l-0.1024 -32.6144c0 -8.9088 -7.2704 -16.128 -16.1792 -16.128c-8.9088 0 -16.128 7.2704 -16.128 16.1792C86.3744 331.3152 88.8832 335.9744 92.7232 338.944zM409.2928 245.504H36.8128c-11.6224 0 -21.0432 -9.4208 -21.0432 -21.0432v-34.56c0 -11.6224 9.4208 -21.0432 21.0432 -21.0432H268.8c2.1504 2.4576 4.4032 4.9152 6.7584 7.2192 c26.8288 26.8288 62.5152 41.6256 100.5056 41.6256c18.944 0 37.3248 -3.6864 54.3232 -10.7008v17.4592C430.3872 236.0832 420.9152 245.504 409.2928 245.504zM71.424 76.544H233.984c0.2048 27.648 8.2432 54.0672 23.0912 76.6976H36.8128c-11.6224 0 -21.0432 -9.4208 -21.0432 -21.0432C15.7696 101.4784 40.704 76.544 71.424 76.544zM430.3872 190.1568c-16.7424 7.936 -35.2256 12.1344 -54.3232 12.1344c-36.9152 0 -77.312 -19.7632 -100.1472 -48.9984c-17.0496 -21.8624 -26.368 -48.5888 -26.5728 -76.6976 c0 -0.3584 0 -0.6656 0 -1.024c0 -33.8432 13.2096 -65.6896 37.12 -89.6512c23.9616 -23.9616 55.7568 -37.12 89.6512 -37.12c33.8432 0 65.6896 13.2096 89.6512 37.12 c23.9616 23.9616 37.12 55.7568 37.12 89.6512c0 33.8432 -13.2096 65.6896 -37.12 89.6512C455.2704 175.616 443.3408 184.0128 430.3872 190.1568zM376.064 -7.68 c-15.0528 0 -29.184 3.9936 -41.3696 11.0592l113.5616 113.5616c7.0144 -12.1856 11.0592 -26.3168 11.0592 -41.3696C459.264 29.6448 421.9392 -7.68 376.064 -7.68zM292.864 76.544 c0.4096 34.9696 22.528 64.8192 53.504 76.6976c9.216 3.5328 19.2512 5.4784 29.696 5.4784c10.4448 0 20.48 -1.9456 29.696 -5.4784c4.0448 -1.536 7.936 -3.4304 11.6736 -5.5808l-71.168 -71.168l-42.3936 -42.3936 c-7.0144 12.1856 -11.0592 26.3168 -11.0592 41.3696C292.864 75.8784 292.864 76.2368 292.864 76.544z"/><glyph unicode="&#xE015;" glyph-name="diet2" horiz-adv-x="512" d="M38.7072 15.9232h164.6592l-16.5376 16.5376c-14.08 14.08 -14.08 36.9664 0 51.0464l29.9008 29.9008c6.8096 6.8096 15.872 10.5472 25.4976 10.5472 c9.6256 0 18.688 -3.7376 25.4976 -10.5472l33.4336 -33.4336l118.3744 118.3744c4.9152 4.9152 11.0592 8.2432 17.7152 9.728V414.5152c0 11.3152 -9.1648 20.48 -20.48 20.48H38.7072 c-11.3152 0 -20.48 -9.1648 -20.48 -20.48v-378.112C18.2272 25.088 27.392 15.9232 38.7072 15.9232zM112.6912 362.4448c14.2336 9.216 29.44 16.64 45.4656 22.1696 c22.3744 7.7312 45.7728 11.6736 69.5808 11.6736c23.808 0 47.2576 -3.9424 69.5808 -11.6736c16.0256 -5.5808 31.2832 -13.0048 45.4656 -22.1696c8.0384 -5.1712 9.9328 -16.128 4.096 -23.6544 l-40.0384 -51.8656c-5.0176 -6.5024 -14.1312 -8.2432 -21.1968 -4.0448c-12.7488 7.5264 -26.6752 12.4416 -41.3184 14.5408l-16.64 74.752l-16.64 -74.752c-14.6432 -2.0992 -28.6208 -7.0144 -41.3184 -14.5408 c-7.0656 -4.1984 -16.1792 -2.4576 -21.1968 4.0448L108.544 338.7904C102.7072 346.368 104.6528 357.2736 112.6912 362.4448zM459.5712 187.3408c-3.9936 3.9936 -9.216 5.9904 -14.4896 5.9904c-2.6624 0 -5.3248 -0.512 -7.8336 -1.536c-2.4064 -1.024 -4.7104 -2.4576 -6.656 -4.4544L301.2096 57.9072l-44.4416 44.4416 c-3.9936 3.9936 -9.216 5.9904 -14.4896 5.9904s-10.496 -1.9968 -14.4896 -5.9904l-29.9008 -29.9008c-7.9872 -7.9872 -7.9872 -20.9408 0 -28.9792l27.5456 -27.5456l46.336 -46.336 c7.7824 -7.7824 18.3808 -12.1856 29.44 -12.1856c11.0592 0 21.6064 4.4032 29.44 12.1856L489.472 128.4608c7.9872 7.9872 7.9872 20.9408 0 28.9792L459.5712 187.3408z"/><glyph unicode="&#xE016;" glyph-name="direction23" horiz-adv-x="512" d="M202.496 -27.7504c0 -9.8816 8.0384 -17.92 17.92 -17.92h30.208c9.8816 0 17.92 8.0384 17.92 17.92v80.384h-66.048V-27.7504zM268.544 412.3648c0 9.8816 -8.0384 17.92 -17.92 17.92h-30.208c-9.8816 0 -17.92 -8.0384 -17.92 -17.92v-15.7184h66.048V412.3648zM202.496 243.0464l66.048 0l0 -36.8128l-66.048 0ZM394.496 374.272c-3.3792 4.4032 -8.6528 7.0144 -14.2336 7.0144H268.544h-66.048H94.72c-9.8816 0 -17.92 -8.0384 -17.92 -17.92v-87.04c0 -9.8816 8.0384 -17.92 17.92 -17.92h107.776h66.048h111.7184 c5.5808 0 10.8544 2.6112 14.2336 7.0144l33.3824 43.52c4.9152 6.4512 4.9152 15.36 0 21.8112L394.496 374.272zM268.544 67.9936H372.224c9.8816 0 17.92 8.0384 17.92 17.92v87.04c0 9.8816 -8.0384 17.92 -17.92 17.92H268.544h-66.048H86.6816c-5.5808 0 -10.8544 -2.6112 -14.2336 -7.0144l-33.3824 -43.52 c-4.9152 -6.4512 -4.9152 -15.36 0 -21.8112l33.3824 -43.52c3.3792 -4.4032 8.6528 -7.0144 14.2336 -7.0144h115.8144H268.544z"/><glyph unicode="&#xE017;" glyph-name="dive2" horiz-adv-x="512" d="M439.3984 412.5696h-14.3872c-9.8816 0 -17.92 -8.0384 -17.92 -17.92v-85.76c16.64 -5.5808 28.672 -21.2992 28.672 -39.7824v-76.288c0 -5.12 -0.3584 -10.1888 -1.024 -15.2064 c-1.3312 -9.6256 -3.8912 -18.944 -7.68 -27.9552c-4.864 -11.52 -11.5712 -21.9648 -19.9168 -31.232c-1.2288 -1.3824 -2.5088 -2.7136 -3.84 -4.0448c-4.5568 -4.5568 -9.472 -8.704 -14.6944 -12.3392 c2.6112 -1.536 5.6832 -2.4064 8.9088 -2.4064h9.4208c-2.6112 -41.3696 -37.1712 -74.24 -79.2064 -74.1376c-41.7792 0.1024 -75.776 33.024 -78.6944 74.1376h26.9824c-3.7888 3.1744 -7.2704 6.7072 -10.3936 10.496 L248.832 130.9184L230.8608 153.088c-2.4064 2.9696 -5.4784 3.3792 -7.1168 3.3792c-1.6384 0 -4.7104 -0.4608 -7.1168 -3.3792l-17.9712 -22.1696l-16.7936 -20.736c-3.1232 -3.84 -6.6048 -7.3728 -10.3936 -10.496 h27.3408c1.4336 -32.1024 14.4384 -62.8224 37.12 -85.8112c24.5248 -24.832 57.2416 -38.5024 92.1088 -38.5024s67.584 13.6704 92.1088 38.5024c22.6816 22.9888 35.6864 53.7088 37.12 85.8112h9.728 c9.7792 0 17.7152 7.936 17.7152 17.7152v42.5472c0 9.7792 -7.936 17.7152 -17.7152 17.7152h-9.5744V394.6496C457.3184 404.5824 449.3312 412.5696 439.3984 412.5696zM133.4272 331.4176l-10.24 -20.2752h201.1136l-10.24 20.2752c-3.072 6.0416 -9.216 9.8304 -15.9744 9.8304H149.4528C142.6944 341.248 136.4992 337.408 133.4272 331.4176zM29.3888 269.1584v-76.288c0 -51.456 41.728 -93.184 93.184 -93.184h0c17.5616 0 34.2016 7.8848 45.312 21.4528c0.0512 0.0512 0.1024 0.1536 0.1536 0.2048l30.5664 37.7344l4.1984 5.1712 c5.376 6.656 13.1584 9.984 20.8896 9.984c7.7824 0 15.5136 -3.328 20.8896 -9.984l4.1984 -5.1712l30.5664 -37.7344c0.0512 -0.0512 0.1024 -0.1536 0.1536 -0.2048 c11.1104 -13.568 27.7504 -21.4528 45.312 -21.4528h0c20.5312 0 39.5264 6.656 54.9376 17.92c11.3152 8.2432 20.6848 18.9952 27.2896 31.4368c4.7104 8.8064 7.9872 18.432 9.6768 28.5696 c0.8192 4.9664 1.2288 10.0352 1.2288 15.2064v76.288c0 8.448 -4.352 15.9232 -10.9056 20.2752c-3.84 2.5088 -8.3968 3.9936 -13.312 3.9936H333.2608H114.2272H53.6576 C40.2432 293.376 29.3888 282.5216 29.3888 269.1584z"/><glyph unicode="&#xE018;" glyph-name="dollar" horiz-adv-x="512" d="M286.4128 178.176c50.1248 19.3024 78.848 38.6048 91.5456 48.384c4.7616 3.6864 10.7008 5.7344 16.7424 5.7344c6.0416 0 11.9808 -2.048 16.7424 -5.7344 c7.0656 -5.4784 19.1488 -13.8752 37.2224 -23.6544V343.8592c0 9.8816 -8.0384 17.92 -17.92 17.92H28.928c-9.8816 0 -17.92 -8.0384 -17.92 -17.92v-178.1248c0 -9.8816 8.0384 -17.92 17.92 -17.92h240.128 c-0.1024 1.2288 -0.1536 2.4064 -0.2048 3.4816C268.3392 163.1232 275.3536 173.9264 286.4128 178.176zM262.2464 198.7584c-5.5296 -5.7856 -12.9536 -9.8304 -21.504 -11.6224v-2.9184c0 -5.0688 -4.1472 -9.216 -9.216 -9.216 h-3.9936c-5.0688 0 -9.216 4.1472 -9.216 9.216v3.1232c-4.5056 0.9728 -8.7552 2.5088 -12.6464 4.5056c-5.2224 2.6624 -9.728 7.0144 -13.4656 12.8512c-2.4576 3.8912 -4.2496 8.3968 -5.376 13.4656 c-0.512 2.4576 -0.0512 4.9664 1.3824 7.0144c1.3824 2.0992 3.6352 3.5328 6.0928 3.9424l3.9936 0.7168c0.512 0.1024 1.0752 0.1536 1.5872 0.1536c4.1984 0 7.8848 -2.8672 8.96 -6.9632 c1.0752 -4.1472 2.4576 -7.3728 4.1984 -9.5744c3.8912 -4.9664 10.3424 -7.936 17.2032 -7.936c1.1776 0 2.3552 0.1024 3.4816 0.256c4.9152 0.7168 9.3184 3.072 12.3392 6.5024 c3.2256 3.6352 4.864 8.2944 4.864 13.7728c0 4.608 -1.0752 8.2432 -3.2768 10.9056c-4.1472 5.0688 -11.4688 7.2704 -18.1248 8.8064c-8.7552 1.9968 -16.64 3.9936 -24.6272 8.448 c-5.3248 2.9696 -9.472 7.1168 -12.3392 12.3904c-2.816 5.1712 -4.3008 11.1104 -4.3008 17.664c0 11.6224 4.1984 21.1456 12.4416 28.3648c4.5568 3.9936 10.5472 6.8096 17.5104 8.2944v4.5056 c0 5.0688 4.1472 9.216 9.216 9.216h3.9936c5.0688 0 9.216 -4.1472 9.216 -9.216v-4.608c6.4 -1.4336 12.032 -4.096 16.3328 -7.6288c4.9664 -4.096 8.6016 -9.3696 10.8032 -15.5648c0.9216 -2.56 0.6656 -5.4272 -0.768 -7.7824 c-1.4336 -2.4064 -3.84 -3.9936 -6.6048 -4.4032l-3.8912 -0.5632c-0.4608 -0.0512 -0.9216 -0.1024 -1.3824 -0.1024c-3.9424 0 -7.4752 2.5088 -8.7552 6.2464c-0.8704 2.5088 -1.9968 4.5568 -3.3792 6.144 c-3.1744 3.5328 -8.192 5.5808 -13.824 5.5808c-6.0416 0 -11.6736 -2.304 -15.1552 -6.1952c-2.816 -3.1232 -4.1472 -6.7584 -4.1472 -11.1104c0 -4.2496 1.1776 -7.8336 3.4816 -10.5984 c5.0176 -6.0416 13.568 -7.7824 21.8624 -9.4208c5.12 -1.024 10.4448 -2.0992 15.104 -4.1472c5.0176 -2.2016 9.1648 -4.9664 12.3904 -8.192c3.2768 -3.2768 5.7856 -7.168 7.5264 -11.6224 c1.7408 -4.4032 2.6112 -9.2672 2.6112 -14.336C273.0496 215.808 269.4144 206.2848 262.2464 198.7584zM497.7152 164.5056c-12.1856 4.7104 -23.1936 9.4208 -33.024 14.0288c-5.376 2.5088 -10.752 5.12 -16.0256 7.8336c-22.9376 11.8272 -37.9392 22.2208 -46.1312 28.5696 c-2.304 1.792 -5.0688 2.6624 -7.7824 2.6624s-5.5296 -0.8704 -7.7824 -2.6624c-13.056 -10.0864 -43.1104 -30.3616 -95.232 -50.432c-5.12 -1.9968 -8.448 -7.0144 -8.192 -12.544c0.3072 -6.7584 1.024 -13.5168 2.0992 -20.224 c5.9392 -38.144 27.3408 -104.3968 103.0144 -145.2544c1.8944 -1.024 3.9936 -1.536 6.0928 -1.536c2.0992 0 4.1984 0.512 6.0928 1.536C492.7488 36.1984 504.576 123.392 505.9072 152.0128 C506.1632 157.4912 502.8352 162.5088 497.7152 164.5056z"/><glyph unicode="&#xE019;" glyph-name="dollar symbol" horiz-adv-x="512" d="M308.736 199.3728c-5.2736 5.2736 -11.9808 9.728 -20.0192 13.2608c-7.4752 3.2768 -15.616 4.9152 -23.4496 6.5024c-10.24 2.048 -20.0192 4.0448 -26.4192 9.3696c-0.9216 0.768 -1.792 1.6384 -2.56 2.56 c-2.56 3.072 -3.7888 7.0144 -3.7888 11.9296c0 4.9664 1.4848 8.96 4.6592 12.544c2.5088 2.816 6.2464 4.9664 10.4448 6.1952c2.4064 0.6656 4.9152 1.024 7.5264 1.024c6.6048 0 12.4928 -2.304 16.0768 -6.2976 c2.6624 -2.9696 4.5568 -7.8848 5.5296 -14.2848c0.6144 -4.1984 4.2496 -7.2192 8.3968 -7.2192c0.4096 0 0.8192 0.0512 1.28 0.1024l27.2896 4.096c4.608 0.6656 7.7824 4.9664 7.168 9.5744l0 0 c-2.3552 16.64 -9.472 30.0032 -21.1456 39.7312c-5.9904 4.9664 -13.5168 8.8064 -21.9648 11.3152v13.2096c0 4.7104 -3.7888 8.4992 -8.4992 8.4992h-21.5552h-6.0928 c-4.7104 0 -8.4992 -3.7888 -8.4992 -8.4992v-13.0048c-9.3184 -2.6112 -17.4592 -6.8608 -23.8592 -12.4416c-13.4656 -11.776 -20.3264 -27.3408 -20.3264 -46.1824c0 -5.3248 0.6144 -10.3936 1.792 -15.2064 c1.1776 -4.8128 2.9184 -9.3184 5.2224 -13.568c4.7616 -8.704 11.6224 -15.616 20.4288 -20.5312c12.4416 -6.9632 24.5248 -10.0352 37.8368 -13.0048c8.8064 -1.9968 18.4832 -4.864 23.5008 -10.9568 c2.304 -2.8672 3.5328 -7.0656 3.5328 -12.4416c0 -6.7072 -1.8432 -12.1344 -5.6832 -16.4864c-3.584 -4.096 -8.8064 -6.8096 -14.6944 -7.7312c-1.3824 -0.2048 -2.8672 -0.3072 -4.3008 -0.3072 c-8.3968 0 -16.2304 3.5328 -20.8384 9.5232c-2.1504 2.7648 -5.12 8.6528 -6.8608 20.992c-0.6144 4.2496 -4.2496 7.2704 -8.3968 7.2704c-0.4608 0 -0.9728 -0.0512 -1.4848 -0.1024l-26.6752 -4.6592 c-4.3008 -0.768 -7.3216 -4.608 -7.0144 -8.96c0.9216 -13.1584 4.4544 -24.6272 10.3936 -33.9968c6.0416 -9.5232 13.4656 -16.5888 22.016 -20.992c4.864 -2.5088 10.0352 -4.5056 15.5136 -5.9904v-10.9568 c0 -4.7104 3.7888 -8.4992 8.4992 -8.4992h27.648c4.7104 0 8.4992 3.7888 8.4992 8.4992V93.696c11.8272 3.2768 22.1696 9.3184 30.1056 17.664c11.6224 12.2368 17.5104 27.5456 17.5104 45.6192 c0 8.2432 -1.4336 16.0768 -4.2496 23.2448C318.2592 187.5456 314.112 193.9968 308.736 199.3728zM461.7216 316.0064l20.1728 19.2512c7.1168 6.8096 4.1984 18.7904 -5.2224 21.5552l-116.6848 34.2016c-9.472 2.7648 -18.3808 -5.7344 -16.0256 -15.3088l28.672 -118.1184 c2.304 -9.5744 14.1312 -13.056 21.2992 -6.2464l16.7424 15.9744c6.144 -15.872 10.1376 -32.5632 11.9296 -49.92c3.328 -31.8464 -1.1776 -64.2048 -13.1072 -93.696 c-10.0352 -24.832 -25.2928 -47.5648 -44.4416 -66.4064c-4.8128 -4.7616 -5.1712 -12.4416 -0.7168 -17.5616l26.88 -30.976c4.8128 -5.5296 13.2608 -5.888 18.5856 -0.8192 c26.5216 25.5488 47.616 56.6784 61.44 90.7264c16.0256 39.5264 22.0672 82.944 17.6128 125.6448C485.4272 256.7168 476.3136 287.4368 461.7216 316.0064zM48.7424 79.9232l-20.1728 -19.2512c-7.1168 -6.8096 -4.1984 -18.7904 5.2224 -21.5552l116.6848 -34.2016c9.472 -2.7648 18.3808 5.7344 16.0256 15.3088l-28.672 118.1184 c-2.304 9.5744 -14.1312 13.056 -21.2992 6.2464l-16.7424 -15.9744c-6.144 15.872 -10.1376 32.5632 -11.9296 49.92c-3.328 31.8464 1.1776 64.2048 13.1072 93.696 c10.0352 24.832 25.2928 47.5648 44.4416 66.4064c4.8128 4.7616 5.1712 12.4416 0.7168 17.5616l-26.88 30.976c-4.8128 5.5296 -13.2608 5.888 -18.5856 0.8192 c-26.5216 -25.5488 -47.616 -56.6784 -61.44 -90.7264c-16.0256 -39.5264 -22.0672 -82.944 -17.6128 -125.6448C25.0368 139.2128 34.1504 108.4928 48.7424 79.9232z"/><glyph unicode="&#xE01A;" glyph-name="drink81" horiz-adv-x="512" d="M40.6528 415.232c-3.1744 -3.5328 -4.6592 -8.2944 -4.096 -13.0048L79.9232 37.376c0.9728 -8.3968 8.0896 -14.6944 16.5376 -14.6944h166.6048c-0.8704 2.4064 -1.6384 4.864 -2.3552 7.3216 c-2.4064 8.2432 -4.0448 16.896 -4.9152 25.9584c-0.512 5.1712 -0.768 10.496 -0.768 15.9232c0 47.8208 29.0816 91.4432 54.9888 129.536c1.9456 2.9184 3.9424 5.7344 5.888 8.4992l23.3984 192.2048 c0.5632 4.7104 -0.9216 9.472 -4.0448 13.056c-3.1744 3.584 -7.68 5.632 -12.4416 5.632H53.0944C48.3328 420.8128 43.776 418.7648 40.6528 415.232zM303.9232 387.5328l-13.7216 -112.4864 c-3.6864 -1.4848 -7.5776 -2.6112 -11.8784 -3.6352c-23.1424 -5.3248 -47.2064 -1.28 -69.9392 4.2496c-31.6416 7.6288 -63.6928 18.432 -96.6656 15.0016l23.2448 -195.6864c0.6656 -5.632 -3.328 -10.7008 -8.96 -11.3664 l-7.6288 -0.9216c-5.632 -0.6656 -10.7008 3.328 -11.3664 8.96l-22.8864 192.5632c-0.0512 0 -0.0512 0 -0.1024 -0.0512l-12.288 103.3216H303.9232zM311.7056 176.128c-25.7024 -40.6528 -50.5344 -91.8016 -36.4032 -141.4656c12.8 -44.9536 53.504 -72.9088 99.6352 -72.9088c57.8048 0 104.6528 40.0384 104.6528 110.1824 S374.9888 261.12 374.9888 261.12S340.9408 222.4128 311.7056 176.128z"/><glyph unicode="&#xE01B;" glyph-name="drink82" horiz-adv-x="512" d="M145.3568 213.4016c-5.632 -4.352 -8.9088 -11.0592 -8.9088 -18.176v-225.4848c0 -12.7488 10.2912 -23.04 23.04 -23.04h210.944c12.7488 0 23.04 10.2912 23.04 23.04V195.2256 c0 7.1168 -3.2768 13.824 -8.9088 18.176c-13.9264 10.8544 -39.3728 34.1504 -39.3728 59.5456H292.608H184.6784C184.6784 247.6032 159.2832 224.3072 145.3568 213.4016zM190.7712 382.8736c-11.3152 0 -20.48 -9.1648 -20.48 -20.48v-47.2064c0 -11.3152 9.1648 -20.48 20.48 -20.48h150.8864c11.3152 0 20.48 9.1648 20.48 20.48v47.2064c0 11.3152 -9.1648 20.48 -20.48 20.48H293.888 V404.0192h24.832V418.2016c0 11.3152 -9.1648 20.48 -20.48 20.48h-64c-11.3152 0 -20.48 -9.1648 -20.48 -20.48v-14.2336h24.832v-21.0944H190.7712z"/><glyph unicode="&#xE01C;" glyph-name="dumbbell" horiz-adv-x="512" d="M21.2992 -13.312c76.3392 -1.9456 114.4832 -47.4112 236.288 -30.8736c39.1168 5.3248 80.384 5.5296 100.9152 5.2224c7.3216 -0.1024 13.6192 4.9664 15.2064 12.0832 c5.5808 24.9344 19.5072 52.0704 19.5072 104.0384c0 60.672 -26.624 102.144 -26.624 153.6c0 30.6176 -6.8096 59.904 -12.3392 78.592c-1.4848 -6.5024 -3.5328 -12.8512 -6.144 -18.9952 c-5.8368 -13.824 -14.1824 -26.2144 -24.8832 -36.864c-8.7552 -8.7552 -18.688 -15.9744 -29.6448 -21.504c0.2048 -11.1616 -4.4032 -21.9136 -12.4416 -29.7472C219.5456 142.0288 274.3808 83.456 243.6608 109.2608 c-45.5168 49.5616 -130.56 20.8384 -130.56 20.8384c-23.552 41.1648 -77.568 32.9216 -92.7232 29.6448c-2.3552 -0.512 -4.0448 -2.6112 -4.0448 -5.0176V-8.192C16.2816 -10.9568 18.4832 -13.2608 21.2992 -13.312zM241.2544 234.8032c21.0944 0 40.6528 6.5024 56.832 17.5616c22.1696 15.2064 37.9392 39.0144 42.4448 66.6112c1.8944 11.4688 1.7408 23.552 -0.3584 35.0208 c-8.704 46.7456 -49.7152 82.1248 -98.9696 82.1248c-42.4448 0 -78.7456 -26.2656 -93.5424 -63.3856c-4.6592 -11.7248 -7.1168 -24.6272 -7.1168 -37.2736 C140.5952 279.8592 185.6512 234.8032 241.2544 234.8032zM241.2544 376.2176c22.528 0 40.7552 -18.2272 40.7552 -40.7552c0 -0.8704 -0.0512 -1.7408 -0.1024 -2.6112c-0.6656 -10.7008 -5.4784 -20.2752 -12.8512 -27.136 c-7.2704 -6.8096 -17.0496 -10.9568 -27.8016 -10.9568c-13.568 0 -25.5488 6.6048 -32.9728 16.7936c-4.9152 6.7072 -7.7824 15.0016 -7.7824 23.9616c0 1.7408 0.1024 3.4816 0.3584 5.1712 C203.3664 360.704 220.4672 376.2176 241.2544 376.2176z"/><glyph unicode="&#xE01D;" glyph-name="dumbell" horiz-adv-x="512" d="M319.5904 422.9632L264.6016 314.5216l46.4384 -91.5968c1.1776 -0.4608 2.3552 -0.9216 3.5328 -1.4336c10.4448 -4.4032 20.224 -9.984 29.3376 -16.5888l107.9808 212.992 c3.4304 6.8096 -1.4848 14.848 -9.1136 14.848H335.5648C328.8064 432.7936 322.6624 429.0048 319.5904 422.9632zM192.4096 422.9632c-3.072 6.0416 -9.216 9.8304 -15.9744 9.8304H69.2736c-7.6288 0 -12.5952 -8.0384 -9.1136 -14.848l108.4416 -213.9136c25.3952 18.8928 56.6784 29.184 88.2688 29.184 c11.4688 0 22.7328 -1.28 33.6896 -3.84L192.4096 422.9632zM211.6608 209.8688c-17.8688 -6.5024 -34.304 -16.7424 -47.9232 -30.1568c-24.4736 -24.1152 -39.68 -57.6 -39.68 -94.6688c0 -73.3696 59.4944 -132.864 132.864 -132.864 s132.864 59.4944 132.864 132.864c0 37.6832 -15.6672 71.68 -40.8576 95.8464c-24.576 23.6032 -57.9072 37.0176 -92.0064 37.0176C241.408 217.9072 226.0992 215.0912 211.6608 209.8688zM349.6448 84.6336c0 -8.3968 -6.8096 -15.2064 -15.2064 -15.2064h-6.5536v-22.1184c0 -8.3968 -6.8096 -15.2064 -15.2064 -15.2064c-8.3968 0 -15.2064 6.8096 -15.2064 15.2064v22.1184H216.2688v-22.4768 c0 -8.3968 -6.8096 -15.2064 -15.2064 -15.2064S185.856 38.6048 185.856 47.0016v22.4768h-7.2704c-8.3968 0 -15.2064 6.8096 -15.2064 15.2064c0 8.3968 6.8096 15.2064 15.2064 15.2064H185.856v22.1184 c0 8.3968 6.8096 15.2064 15.2064 15.2064s15.2064 -6.8096 15.2064 -15.2064V99.84H297.472v22.4768c0 8.3968 6.8096 15.2064 15.2064 15.2064c8.3968 0 15.2064 -6.8096 15.2064 -15.2064V99.84h6.5536 C342.8352 99.84 349.6448 93.0304 349.6448 84.6336z"/><glyph unicode="&#xE01E;" glyph-name="earn1" horiz-adv-x="512" d="M251.904 423.8336c-79.2064 0 -143.4112 -64.2048 -143.4112 -143.4112c0 -90.3168 85.8112 -193.7408 85.8112 -193.7408h120.2688c0 0 80.7936 103.424 80.7936 193.7408 C395.3152 359.6288 331.1104 423.8336 251.904 423.8336zM294.2464 181.9648c-7.2192 -7.5776 -16.9472 -12.8 -28.1088 -15.2064v-3.84c0 -6.656 -5.4272 -12.0832 -12.0832 -12.0832H248.832 c-6.656 0 -12.0832 5.4272 -12.0832 12.0832v4.096c-5.888 1.28 -11.4176 3.2256 -16.5376 5.888c-6.8096 3.4816 -12.6976 9.1648 -17.5616 16.8448c-3.2256 5.0688 -5.5808 11.008 -7.0144 17.6128 c-0.7168 3.2256 -0.0512 6.4512 1.792 9.216c1.8432 2.7136 4.7616 4.608 7.9872 5.1712l5.2224 0.9216c0.6656 0.1024 1.3824 0.2048 2.0992 0.2048c5.5296 0 10.3424 -3.7376 11.6736 -9.1136 c1.3824 -5.4272 3.2256 -9.6256 5.4784 -12.544c5.0688 -6.5024 13.5168 -10.3936 22.528 -10.3936c1.536 0 3.072 0.1024 4.5568 0.3584c6.4512 0.9728 12.1344 3.9936 16.128 8.4992 c4.1984 4.7616 6.3488 10.8544 6.3488 18.0224c0 5.9904 -1.4336 10.8032 -4.2496 14.2848c-5.4272 6.656 -15.0016 9.5232 -23.6544 11.52c-11.4176 2.6112 -21.76 5.2224 -32.2048 11.0592 c-6.9632 3.8912 -12.3392 9.3184 -16.128 16.1792c-3.7376 6.8096 -5.5808 14.5408 -5.5808 23.0912c0 15.1552 5.4784 27.648 16.2816 37.12c5.9392 5.1712 13.824 8.9088 22.8864 10.8544v5.888 c0 6.656 5.4272 12.0832 12.0832 12.0832h5.2224c6.656 0 12.0832 -5.4272 12.0832 -12.0832v-6.0416c8.3968 -1.8944 15.7184 -5.3248 21.3504 -9.984c6.4512 -5.376 11.2128 -12.2368 14.1312 -20.3776 c1.2288 -3.3792 0.8704 -7.0656 -0.9728 -10.1888c-1.8432 -3.1232 -5.0176 -5.2224 -8.6016 -5.7856l-5.0688 -0.768c-0.6144 -0.1024 -1.1776 -0.1536 -1.792 -0.1536c-5.1712 0 -9.7792 3.2768 -11.4176 8.192 c-1.1264 3.2768 -2.6112 5.9904 -4.4032 7.9872c-4.1472 4.6592 -10.752 7.3216 -18.0736 7.3216c-7.8848 0 -15.2576 -3.0208 -19.7632 -8.0896c-3.6352 -4.096 -5.4272 -8.8576 -5.4272 -14.4896 c0 -5.5808 1.536 -10.24 4.5568 -13.8752c6.5536 -7.8848 17.7664 -10.1376 28.6208 -12.3392c6.7072 -1.3312 13.6192 -2.7648 19.7632 -5.4272c6.5536 -2.8672 12.032 -6.5024 16.2304 -10.7008 c4.2496 -4.2496 7.5776 -9.3696 9.8304 -15.2064c2.2528 -5.7856 3.3792 -12.0832 3.3792 -18.7904C308.4288 204.288 303.6672 191.8464 294.2464 181.9648zM191.488 69.7344l120.7808 0l0 -31.1808l-120.32 0ZM191.488 15.2064L191.488 15.2064c0.3072 -33.1264 27.1872 -59.8528 60.3648 -59.8528c33.1776 0 60.1088 26.7264 60.3648 59.8528h0v7.0144H191.488V15.2064z"/><glyph unicode="&#xE01F;" glyph-name="ekg" horiz-adv-x="512" d="M492.1344 267.3152c-0.1536 1.9968 -0.3584 3.9936 -0.6144 5.9392c-8.2432 64.9728 -69.632 109.6192 -132.3008 109.6192c-11.8272 0 -23.7568 -1.5872 -35.328 -4.9664 c-27.1872 -7.8848 -50.176 -24.9344 -67.3792 -46.9504c-17.2032 22.016 -40.1408 39.0656 -67.3792 46.9504c-11.5712 3.3792 -23.5008 4.9664 -35.328 4.9664C91.136 382.8736 29.7984 338.2784 21.504 273.3056 c-0.256 -1.9968 -0.4608 -3.9424 -0.6144 -5.9392c-2.304 -29.2352 5.12 -57.5488 18.2272 -83.3024h85.6064l33.024 83.8144c2.1504 5.5296 7.5264 9.0624 13.4656 8.9088 c5.9392 -0.1536 11.1104 -3.9936 12.9536 -9.6256l32.256 -97.1776l7.3728 -22.272l10.5472 22.272l32.256 68.1984c2.304 4.8128 7.1168 7.936 12.4928 8.0384c0.1024 0 0.1536 0 0.256 0 c5.2736 0 10.0864 -2.9184 12.4928 -7.6288l28.2624 -54.5792h153.7024C487.0144 209.7664 494.3872 238.1312 492.1344 267.3152zM299.1104 163.4816l-3.328 6.4512l-15.7696 30.464l-14.4384 -30.464l-31.232 -66.048c-2.3552 -4.9152 -7.3216 -8.0384 -12.6976 -8.0384c-0.3072 0 -0.5632 0 -0.8704 0.0512 c-5.7344 0.3584 -10.7008 4.1472 -12.4928 9.6256l-21.4016 64.4608l-17.1008 51.456l-20.2752 -51.456l-2.048 -5.1712c-2.0992 -5.376 -7.3216 -8.9088 -13.1072 -8.9088H56.3712 c7.68 -10.752 16.2304 -20.7872 25.2928 -30.0544c41.3696 -42.24 93.3888 -71.3728 139.6224 -107.5712c11.7248 -9.216 25.2416 -18.688 35.2256 -29.7984c9.984 11.1104 23.5008 20.6336 35.2256 29.7984 c46.2336 36.1984 98.2528 65.3312 139.6224 107.5712c9.0624 9.216 17.6128 19.3024 25.2928 30.0544H311.6032C306.3296 155.8528 301.5168 158.8224 299.1104 163.4816z"/><glyph unicode="&#xE020;" glyph-name="fish1" horiz-adv-x="512" d="M485.5296 26.624V219.5456c0 9.472 -8.448 16.64 -17.8176 15.1552c-41.728 -6.6048 -75.8272 -36.0448 -89.1904 -75.1104c-39.5264 53.9136 -101.1712 88.6272 -170.3936 88.6272 c-80.4352 0 -150.6304 -46.7968 -187.8016 -116.2752c-2.9696 -5.5808 -2.9696 -12.2368 0 -17.8176C57.5488 44.7488 127.744 -2.048 208.1792 -2.048c69.2224 0 130.8672 34.6624 170.3936 88.6272 c13.312 -39.0656 47.4624 -68.5056 89.1904 -75.1104C477.0816 9.984 485.5296 17.152 485.5296 26.624zM124.8768 130.9696c-13.0048 0 -23.552 10.5472 -23.552 23.552c0 13.0048 10.5472 23.552 23.552 23.552 s23.552 -10.5472 23.552 -23.552C148.4288 141.5168 137.8816 130.9696 124.8768 130.9696zM171.264 274.688c1.0752 -0.9728 2.2528 -1.8432 3.5328 -2.6112c-2.6112 1.5872 10.496 19.9168 11.9296 21.7088c5.9392 7.3728 12.7488 13.9776 19.0976 20.992 c8.704 9.6768 16.4864 20.3776 21.1456 32.512c4.9664 12.9024 6.5536 28.3136 0.7168 41.2672c-2.048 4.5568 -5.888 9.984 -10.24 12.6464c2.0992 -1.3312 -9.728 -18.9952 -10.9568 -20.736 c-5.2736 -7.4752 -11.264 -14.4384 -17.1008 -21.4528c-10.1376 -12.1856 -20.1728 -25.0368 -24.9856 -40.1408C160.1024 305.4592 159.9488 284.928 171.264 274.688zM281.856 274.688c1.0752 -0.9728 2.2528 -1.8432 3.5328 -2.6112c-2.6112 1.5872 10.496 19.9168 11.9296 21.7088c5.9392 7.3728 12.7488 13.9776 19.0976 20.992 c8.704 9.6768 16.4864 20.3776 21.1456 32.512c4.9664 12.9024 6.5536 28.3136 0.7168 41.2672c-2.048 4.5568 -5.888 9.984 -10.24 12.6464c2.0992 -1.3312 -9.728 -18.9952 -10.9568 -20.736 c-5.2736 -7.4752 -11.264 -14.4384 -17.1008 -21.4528c-10.1376 -12.1856 -20.1728 -25.0368 -24.9856 -40.1408C270.6944 305.4592 270.5408 284.928 281.856 274.688z"/><glyph unicode="&#xE021;" glyph-name="flower165" horiz-adv-x="512" d="M338.4832 399.0528V431.5136c0 7.6288 -6.6048 13.5168 -14.1824 12.7488C302.7456 441.9584 261.2224 433.3056 232.2944 400.896c13.1584 -8.6016 23.6032 -17.5616 31.1808 -24.9856 C286.0544 384.8192 311.1424 392.5504 338.4832 399.0528zM205.1072 346.9312c2.048 1.28 4.096 2.56 6.1952 3.7888c11.264 6.656 23.4496 12.9024 36.608 18.688c-6.6048 6.0416 -15.0016 12.8 -25.088 19.2512c-13.1072 8.448 -29.1328 16.384 -47.872 21.5552 c-1.3824 0.4096 -2.7648 0.5632 -4.1472 0.5632c-8.2432 0 -15.36 -6.6048 -15.36 -15.36v-89.6C168.8064 320.8192 185.3952 334.592 205.1072 346.9312zM195.9424 136.6528L183.808 115.0464c-3.7376 -6.656 0.8192 -14.8992 8.448 -15.2576c2.4576 -0.1024 5.12 -0.2048 7.936 -0.2048c11.8784 0 26.368 1.3312 39.2192 6.1952V-42.496 c0 -9.472 7.68 -17.152 17.152 -17.152c9.472 0 17.152 7.68 17.152 17.152V105.8304c12.8512 -4.864 27.3408 -6.1952 39.2192 -6.1952c2.816 0 5.4784 0.0512 7.936 0.2048 c7.6288 0.3584 12.1856 8.6016 8.448 15.2576l-12.1344 21.6064c37.376 15.4112 62.5664 44.6464 62.5664 78.1312c0 46.848 -15.3088 61.0304 -24.9344 94.1568 c-5.9392 20.4288 1.1776 46.592 7.4752 63.5904c2.56 6.8608 -2.6624 13.824 -9.5232 13.824c-0.768 0 -1.536 -0.1024 -2.304 -0.256c-4.096 -0.9216 -8.0896 -1.8432 -12.032 -2.816 C290.6112 371.6096 242.3296 354.816 201.728 326.2464c-33.4848 -23.552 -73.5232 -66.56 -68.352 -111.5136C133.376 181.248 158.5664 152.064 195.9424 136.6528zM290.7648 11.6224c-0.256 -6.2976 4.1984 -11.8272 10.3936 -13.0048c24.8832 -4.7104 88.2176 -7.1168 107.776 83.9168c1.6896 7.8848 -4.2496 15.4112 -12.3392 15.5136 C303.5136 99.1744 291.7376 36.9152 290.7648 11.6224zM211.5584 -32.512c6.5536 1.0752 11.1616 6.912 10.752 13.5168c-1.4336 21.9136 -12.8 69.0688 -84.8384 69.376c-8.2432 0.0512 -14.336 -7.6288 -12.4928 -15.6672 C141.3632 -35.3792 189.9008 -35.9936 211.5584 -32.512z"/><glyph unicode="&#xE022;" glyph-name="flying" horiz-adv-x="512" d="M484.096 440.2688L432.128 416.6144c-3.328 -1.536 -6.4 -3.6352 -9.0112 -6.2464L338.432 325.632L46.7968 360.6016c-5.2736 0.6144 -10.5984 -1.1776 -14.336 -4.9664l-16.2304 -16.2304 c-8.6016 -8.6016 -5.9392 -23.1424 5.1712 -28.1088L230.4 217.6L170.3936 157.5936l-104.8064 0c-4.608 0 -9.0112 -1.8432 -12.288 -5.0688L44.544 143.7184c-8.704 -8.704 -5.8368 -23.3984 5.4272 -28.2112l88.4224 -37.888 l37.888 -88.4224c4.8128 -11.264 19.5584 -14.1312 28.2112 -5.4272l8.8064 8.8064c3.2768 3.2768 5.0688 7.68 5.0688 12.288l0 104.8064l60.0064 60.0064l93.696 -209.0496c4.9664 -11.1104 19.5072 -13.7728 28.1088 -5.1712 l16.2304 16.2304c3.7888 3.7888 5.5808 9.0624 4.9664 14.336l-35.0208 291.6352l84.736 84.736c2.6112 2.6112 4.7104 5.632 6.2464 9.0112l23.6544 51.968C505.9584 434.0736 494.8992 445.184 484.096 440.2688 z"/><glyph unicode="&#xE023;" glyph-name="football" horiz-adv-x="512" d="M203.7248 136.2432c2.048 -6.3488 7.936 -10.5984 14.592 -10.5984h76.288c6.656 0 12.544 4.3008 14.592 10.5984l23.6032 72.5504c2.048 6.3488 -0.2048 13.2608 -5.5808 17.152L265.5232 270.848 c-5.376 3.8912 -12.6976 3.8912 -18.0736 0l-61.7472 -44.8512c-5.376 -3.8912 -7.6288 -10.8544 -5.5808 -17.152L203.7248 136.2432zM88.4224 26.7776c21.8112 -21.8112 47.2576 -38.9632 75.5712 -50.944c29.3376 -12.3904 60.4672 -18.688 92.5184 -18.688s63.232 6.2976 92.5184 18.688 c28.3136 11.9808 53.7088 29.1328 75.5712 50.944c21.8112 21.8112 38.9632 47.2576 50.944 75.5712c12.3904 29.3376 18.688 60.4672 18.688 92.5184c0 32.1024 -6.2976 63.232 -18.688 92.5184 c-11.9808 28.3136 -29.1328 53.7088 -50.944 75.5712C402.7904 384.768 377.344 401.92 349.0304 413.9008C319.744 426.2912 288.6144 432.5888 256.512 432.5888S193.28 426.2912 163.9936 413.9008 C135.68 401.92 110.2336 384.768 88.4224 362.9568c-21.8112 -21.8112 -38.9632 -47.2576 -50.944 -75.5712C25.088 258.0992 18.7904 226.9184 18.7904 194.8672c0 -32.1024 6.2976 -63.232 18.688 -92.5184 C49.4592 73.984 66.6112 48.5888 88.4224 26.7776zM115.5584 335.8208c20.7872 20.7872 45.3632 36.4032 72.192 46.2336l-5.376 -11.6224c-3.5328 -7.5264 -0.3584 -16.5376 7.0656 -20.224 l59.648 -29.696c4.352 -2.1504 9.472 -2.1504 13.7728 0.0512l59.392 30.1568C329.728 354.5088 332.8 363.52 329.216 371.0464l-5.4784 11.5712c27.392 -9.7792 52.5312 -25.6 73.728 -46.7968 c4.0448 -4.0448 7.8848 -8.192 11.52 -12.4928l-12.6464 1.1264c-8.2944 0.7168 -15.6672 -5.2736 -16.5888 -13.568l-7.5776 -66.2016c-0.5632 -4.8128 1.2288 -9.6256 4.7616 -12.9536l48.5888 -45.568 c6.0928 -5.6832 15.5648 -5.5296 21.4528 0.4096l8.9088 9.0112c0 -0.2048 0 -0.4608 0 -0.6656c0 -38.9632 -11.1104 -76.288 -31.8464 -108.2368l-2.6624 12.4928c-1.7408 8.1408 -9.6256 13.4144 -17.8176 11.8784 l-65.536 -12.1344c-4.7616 -0.8704 -8.8576 -3.9936 -11.008 -8.3456L297.6768 30.72c-3.6864 -7.4752 -0.7168 -16.4864 6.656 -20.3776l11.3152 -5.9392c-18.8928 -5.8368 -38.8096 -8.8576 -59.136 -8.8576 s-40.2432 3.0208 -59.136 8.8576l11.3152 5.9392c7.3728 3.84 10.3424 12.9024 6.656 20.3776l-29.3376 59.8016c-2.1504 4.352 -6.1952 7.4752 -11.008 8.3456l-65.536 12.1344 c-8.192 1.536 -16.0768 -3.7376 -17.8176 -11.8784l-2.6624 -12.4928c-20.736 31.9488 -31.8464 69.2224 -31.8464 108.2368c0 0.2048 0 0.4608 0 0.6656l8.9088 -9.0112c5.8368 -5.9392 15.36 -6.0928 21.4528 -0.4096 l48.5888 45.568c3.5328 3.328 5.3248 8.1408 4.7616 12.9536l-7.5776 66.2016c-0.9216 8.2944 -8.2944 14.2848 -16.5888 13.568l-12.6464 -1.1264C107.6736 327.5776 111.5136 331.776 115.5584 335.8208z"/><glyph unicode="&#xE024;" glyph-name="fruit42" horiz-adv-x="512" d="M335.5136 337.2032c-64.768 0 -120.9856 -36.7616 -148.9408 -90.5216c9.216 -2.048 18.2272 -4.9664 27.0336 -8.6528c18.8928 -7.9872 35.8912 -19.456 50.432 -33.9968 c14.592 -14.592 26.0096 -31.5392 33.9968 -50.432c8.2944 -19.5584 12.4928 -40.3456 12.4928 -61.7984s-4.1984 -42.1888 -12.4928 -61.7984c-3.1232 -7.3728 -6.7584 -14.4384 -10.9056 -21.1968 c15.3088 -4.608 31.5392 -7.1168 48.384 -7.1168c92.6208 0 167.7312 75.1104 167.7312 167.7312C503.2448 262.0928 428.1856 337.2032 335.5136 337.2032zM210.6368 428.4416c0.4096 -26.9312 13.7216 -53.248 37.9904 -69.12c24.2688 -15.872 53.6576 -17.6128 78.5408 -7.2192c-0.4096 26.9312 -13.7216 53.248 -37.9904 69.12 C264.9088 437.1456 235.4688 438.8864 210.6368 428.4416zM344.7808 351.6416c16.0256 -6.7072 34.9184 -5.5808 50.5344 4.608c15.616 10.24 24.1664 27.136 24.4224 44.4928c-16.0256 6.7072 -34.9184 5.5808 -50.5344 -4.608 C353.5872 385.8944 345.0368 368.9472 344.7808 351.6416zM173.7216 78.7456L227.328 14.7968c5.0688 4.9664 9.5744 10.3936 13.5168 16.1792c8.3456 12.2368 14.1312 26.112 16.896 40.7552c-28.0064 2.3552 -47.9744 3.9936 -62.1568 5.1712 C185.8048 77.7728 178.7392 78.336 173.7216 78.7456zM44.2368 90.9312c0.1024 -27.7504 10.9056 -48.6912 19.3536 -60.8256l63.5392 53.2992L44.2368 90.9312zM150.8864 199.2192c-21.9648 -0.3584 -43.9808 -7.5264 -61.4912 -19.968l54.0672 -64.4608L150.8864 199.2192zM175.616 98.3552l8.3456 -0.7168l75.5712 -6.6048c-0.2048 23.3472 -6.656 44.2368 -19.2 62.1568c-19.4048 -16.384 -43.6224 -36.9152 -58.9312 -49.8688 C179.3024 101.4272 177.3568 99.7888 175.616 98.3552zM151.8592 -51.5584c50.5344 0 94.9248 26.1632 120.4736 65.6384c14.4896 22.3744 22.8864 49.0496 22.8864 77.7216c0 69.5296 -49.5104 127.488 -115.2 140.5952 c-9.1136 1.792 -18.5344 2.7648 -28.16 2.7648c-79.1552 0 -143.36 -64.2048 -143.36 -143.36C8.4992 12.6464 72.6528 -51.5584 151.8592 -51.5584zM151.8592 216.1664c7.5264 0 14.848 -0.6656 22.016 -1.9456 c58.1632 -10.3936 102.3488 -61.2352 102.3488 -122.4192c0 -25.7536 -7.8336 -49.664 -21.1968 -69.4784c-22.3232 -33.1264 -60.2112 -54.8864 -103.168 -54.8864 c-68.6592 0 -124.3648 55.6544 -124.3648 124.3648S83.1488 216.1664 151.8592 216.1664zM132.096 -14.2336l7.2704 82.688L75.9808 15.3088C91.3408 0.051200000000012 110.9504 -10.2912 132.096 -14.2336zM74.752 166.7584c-15.1552 -15.616 -25.2416 -35.4304 -28.928 -56.7296l82.8416 -7.5776L74.752 166.7584zM212.4288 2.5088L158.5664 66.816l-7.2704 -82.8416c0.0512 0 0.0512 0 0.1024 0C179.456 -16.0768 200.448 -5.5296 212.4288 2.5088zM227.9424 167.936c-15.7696 15.6672 -35.9424 26.112 -57.7536 29.8496c-0.0512 0 -0.1024 0 -0.1024 0l-0.1536 -1.6384l-2.0992 -23.9104l-5.1712 -58.9824c3.2768 2.7136 7.2192 6.0416 11.6224 9.728 C190.3104 136.3968 212.1216 154.7264 227.9424 167.936z"/><glyph unicode="&#xE025;" glyph-name="fruits1" horiz-adv-x="512" d="M241.92 352.512c1.9968 3.3792 2.816 8.3456 1.5872 12.1344c-1.2288 3.7888 -3.584 7.4752 -7.2192 9.4208c-3.4816 1.8432 -8.2944 3.1744 -12.1344 1.5872 c-19.3536 -7.936 -36.9152 -19.7632 -50.3296 -35.9936c-11.5712 -13.9776 -20.4288 -30.1568 -25.2416 -47.616c-0.3584 -1.3312 0.1536 -2.7136 1.2288 -3.4816c3.1232 -2.1504 6.0416 -4.5568 8.7552 -7.168 c1.2288 -1.1776 3.2256 -1.2288 4.4544 -0.0512c3.6864 3.5328 7.7312 6.656 12.0832 9.3696c2.4064 1.4848 4.9664 2.8672 7.5776 4.096c0.0512 0.1024 0.1024 0.2048 0.1024 0.3072c3.2768 7.3728 7.3728 14.336 12.1344 20.8384 c5.12 6.3488 10.9056 12.1344 17.3056 17.2544c6.7584 5.0176 20.8384 12.1856 21.6576 12.5952l0.1024 0.0512C237.2608 347.392 239.9744 349.184 241.92 352.512zM477.1328 318.7712c-1.4336 3.4304 -5.3248 5.632 -8.704 6.656c-3.5328 1.0752 -7.3216 0.256 -10.5472 -1.3824c-3.1744 -1.6384 -5.7856 -5.2736 -6.656 -8.704c-0.8704 -3.3792 -0.3072 -6.2464 0.8704 -9.2672 c11.264 -27.7504 6.5024 -60.2112 -11.008 -84.1728c-0.7168 -0.9216 -1.4848 -1.792 -2.2528 -2.7136c-0.5632 -0.6144 -0.8192 -1.4336 -0.768 -2.2528c0.256 -5.1712 -0.3584 -10.2912 -1.7408 -15.2576 c-0.7168 -2.4064 1.4848 -4.6592 3.8912 -3.9936c0 0 0.0512 0 0.0512 0c3.8912 1.024 7.8336 1.536 11.8272 1.536c1.536 0 3.072 -0.1024 4.608 -0.2048c1.024 -0.1024 2.048 0.3072 2.7136 1.0752c2.56 2.9696 4.9664 6.0928 7.2192 9.3696 c11.3664 16.0768 17.7152 35.1232 19.5584 54.6304C487.9872 282.88 484.352 301.5168 477.1328 318.7712zM127.6928 42.3936c10.4448 0 22.7328 1.6384 31.0272 8.6016c1.1776 1.024 2.9184 1.024 4.096 0.0512c4.6592 -3.8912 11.1104 -6.656 20.0704 -7.8848c3.7376 -0.512 7.3728 -0.768 11.008 -0.768 c9.0112 0 17.5616 1.5872 25.6512 4.4544c0.7168 0.256 1.28 0.768 1.6896 1.4336c6.0928 10.3936 16.128 18.432 28.672 21.7088l0.1024 0.0512c2.4064 0.6144 3.2256 3.6352 1.4336 5.376 c-5.8368 5.7856 -10.1888 13.1584 -12.3904 21.504c-3.1744 12.1344 -1.3824 24.7808 4.9664 35.584c6.3488 10.8544 16.5376 18.5344 28.672 21.7088c0.0512 0 0.0512 0 0.1024 0 c2.4576 0.6144 3.2256 3.6352 1.4848 5.4272c-5.8368 5.7856 -10.1888 13.1072 -12.3392 21.504c-5.8368 22.528 5.7344 45.568 26.368 54.7328c1.5872 0.7168 2.304 2.56 1.6384 4.1472 c-11.6736 27.8528 -34.816 47.2064 -71.7312 47.2064c-16.4864 0 -30.8224 -5.2736 -41.728 -14.3872c-5.1712 -4.3008 -9.5232 -9.5232 -12.9536 -15.4112c-1.2288 -2.0992 -4.2496 -2.0992 -5.4784 0 c-3.4816 5.9904 -7.936 11.2128 -13.1584 15.616c-10.8544 9.0112 -25.1392 14.1824 -41.472 14.1824C-27.8528 287.1808 15.0528 42.3936 127.6928 42.3936zM89.0368 391.6288c-3.9424 0.1024 -7.3216 -2.7648 -7.8848 -6.656c-2.4064 -18.176 -2.9184 -66.9696 62.4128 -62.3616c3.9424 0.256 7.0656 3.5328 7.1168 7.5264 C151.04 347.136 146.0736 390.0416 89.0368 391.6288zM440.0128 275.0464c0.3072 17.0496 -4.608 59.904 -61.6448 61.5424c-3.9424 0.1024 -7.3216 -2.7648 -7.8848 -6.656c-2.4064 -18.176 -2.9184 -66.9696 62.4128 -62.3616 C436.8896 267.8272 439.9616 271.104 440.0128 275.0464zM462.4384 76.6976c-3.9424 15.0528 -17.5104 25.6 -33.0752 25.6c-2.8672 0 -5.7856 -0.3584 -8.6016 -1.1264c-8.8064 -2.304 -16.2304 -7.8848 -20.8384 -15.7696 c-4.608 -7.8848 -5.9392 -17.1008 -3.6352 -25.9072c3.9424 -15.0528 17.5104 -25.6 33.0752 -25.6c2.8672 0 5.7856 0.3584 8.6016 1.1264C456.1408 39.7312 467.1488 58.4192 462.4384 76.6976zM345.5488 80.4864c-2.8672 0 -5.7856 -0.3584 -8.6016 -1.1264c-18.2272 -4.7616 -29.2352 -23.4496 -24.4736 -41.6768c3.9424 -15.0528 17.5104 -25.6 33.0752 -25.6c2.8672 0 5.7856 0.3584 8.6016 1.1264 c8.8064 2.304 16.2304 7.8848 20.8384 15.7696c4.608 7.8848 5.9392 17.1008 3.6352 25.9072C374.6816 69.9392 361.1136 80.4864 345.5488 80.4864zM397.824 113.2032c4.608 7.8848 5.9392 17.1008 3.6352 25.9072c-3.9424 15.0528 -17.5104 25.6 -33.0752 25.6c-2.8672 0 -5.7856 -0.3584 -8.6016 -1.1264c-18.2272 -4.7616 -29.2352 -23.4496 -24.4736 -41.6768 c3.9424 -15.0528 17.5104 -25.6 33.0752 -25.6c2.8672 0 5.7856 0.3584 8.6016 1.1264C385.792 99.6864 393.216 105.3184 397.824 113.2032zM310.3232 226.9696c-4.864 0.4096 -10.752 -0.4608 -15.3088 -2.2016c-15.9232 -6.1952 -25.088 -23.552 -20.6848 -40.448c3.0208 -11.52 11.6736 -20.3776 22.528 -23.9104c6.144 -1.9968 12.8512 -2.2016 19.1488 -0.5632 c8.8064 2.304 16.2304 7.8848 20.8384 15.7696c4.608 7.8848 5.9392 17.1008 3.6352 25.9072C336.7936 215.6544 324.608 225.792 310.3232 226.9696zM481.5872 134.9632c4.608 7.8848 5.888 17.1008 3.6352 25.9072c-3.9424 15.0528 -17.5104 25.6 -33.0752 25.6c-6.4512 0 -13.568 -2.1504 -18.8928 -5.7344c-11.776 -7.8848 -17.92 -22.5792 -14.1312 -37.0688 c3.9424 -15.0528 17.5104 -25.6 33.0752 -25.6c2.8672 0 5.7856 0.3584 8.6016 1.1264C469.5552 121.4976 476.9792 127.1296 481.5872 134.9632zM420.4032 197.5808c4.5056 7.4752 6.2464 16.64 3.8912 25.7536c-3.9424 15.0528 -17.5104 25.6 -33.0752 25.6c-2.8672 0 -5.7856 -0.3584 -8.6016 -1.1264 c-8.8064 -2.304 -16.2304 -7.8848 -20.8384 -15.7696c-4.608 -7.8848 -5.9392 -17.1008 -3.6352 -25.9072c3.9424 -15.0528 17.5104 -25.6 33.0752 -25.6C403.5072 180.5312 414.3616 187.5456 420.4032 197.5808zM255.1296 126.0032c-4.608 -7.8848 -5.9392 -17.1008 -3.6352 -25.9072c7.424 -28.5696 47.4624 -34.4064 62.5152 -8.704c4.608 7.8848 5.9392 17.1008 3.6352 25.9072 c-4.608 17.7664 -23.7568 29.1328 -41.6768 24.4736C267.1616 139.4688 259.7376 133.888 255.1296 126.0032zM252.16 57.2416c-16.64 -5.1712 -28.16 -23.3984 -23.5008 -41.3184c3.9424 -15.0528 17.5104 -25.6 33.0752 -25.6c2.8672 0 5.7856 0.3584 8.6016 1.1264 c8.8064 2.304 16.2304 7.8848 20.8384 15.7696c4.608 7.8848 5.888 17.1008 3.6352 25.9072c-3.84 14.848 -17.7664 25.6 -33.0752 25.6C258.4064 58.6752 255.1808 58.1632 252.16 57.2416z"/><glyph unicode="&#xE026;" glyph-name="hand227" horiz-adv-x="512" d="M391.9872 433.2544c-13.5168 5.9904 -27.8528 9.0112 -42.5472 9.0112c-38.144 0 -73.0624 -20.6336 -91.5456 -53.4016L169.2672 261.888l27.3408 -18.9952l50.0736 71.7824 c1.1264 -5.1712 2.7136 -10.3424 4.6592 -15.4112c10.1376 -26.2144 29.7984 -46.8992 55.5008 -58.2656c13.5168 -5.9904 27.8528 -9.0112 42.5472 -9.0112c18.7904 0 36.8128 5.0176 52.4288 14.0288 l-19.5072 -85.3504l32.4096 -7.5264L449.2288 304.128C466.0736 354.816 441.856 411.1872 391.9872 433.2544zM349.3888 264.8576c-39.8336 0 -72.192 32.3072 -72.192 72.192c0 39.8336 32.3072 72.192 72.192 72.192 c39.8336 0 72.192 -32.3072 72.192 -72.192C421.5808 297.1648 389.2736 264.8576 349.3888 264.8576zM192.1024 227.328l-36.8128 25.5488c-3.4304 2.4064 -7.3728 3.5328 -11.3152 3.5328c-6.2976 0 -12.4928 -2.9696 -16.3328 -8.5504l-84.5312 -121.856c-6.2464 -9.0112 -3.9936 -21.4016 5.0176 -27.648 l36.8128 -25.5488c3.4304 -2.4064 7.3728 -3.5328 11.3152 -3.5328c6.2976 0 12.4928 2.9696 16.3328 8.5504l84.5312 121.856C203.3152 208.6912 201.1136 221.0816 192.1024 227.328zM417.4336 136.704L373.76 146.8416c-1.4848 0.3584 -3.0208 0.512 -4.5056 0.512c-9.0112 0 -17.2032 -6.1952 -19.3024 -15.36l-33.4336 -144.4864c-2.4576 -10.7008 4.1984 -21.3504 14.848 -23.808l43.6736 -10.0864 c1.4848 -0.3584 3.0208 -0.512 4.5056 -0.512c9.0112 0 17.2032 6.1952 19.3024 15.36l33.4336 144.4864C434.7904 123.5968 428.1344 134.2464 417.4336 136.704z"/><glyph unicode="&#xE027;" glyph-name="healthy food4" horiz-adv-x="512" d="M100.608 118.6304l1.2288 0.3584c49.664 13.4144 92.9792 30.6176 128.6144 51.0976c48.384 27.8016 81.6128 61.184 98.816 99.2256l8.192 18.1248l-14.6944 -13.4144 c-29.184 -26.6752 -69.0176 -46.592 -118.4768 -59.2896c-41.9328 -10.752 -90.112 -16.2304 -143.2576 -16.2304c-2.7648 0 -8.9088 0.0512 -12.5952 0.1024l-8.6528 0.4096c-6.8096 0.3072 -13.0048 -3.8912 -15.2576 -10.3424 l-3.3792 -9.7792c-1.9968 -5.7856 -0.3584 -12.2368 4.1984 -16.384c3.7888 -3.4304 7.6288 -6.7584 7.6288 -6.7584s28.672 -24.832 66.3552 -36.7104L100.608 118.6304zM435.0976 352c-14.8992 6.8608 -29.1328 7.8848 -36.3008 7.8848c-0.9216 0 -1.792 0 -2.5088 -0.0512c-1.6384 5.7344 -9.9328 39.9872 -15.7184 63.9488 c-2.6624 11.008 -15.9232 15.4624 -24.6784 8.2432l-27.4432 -22.6304c-7.168 -5.888 -8.6528 -16.2304 -3.4304 -23.9104c11.4688 -16.8448 30.464 -46.9504 39.7824 -74.1376 c8.8064 -25.7536 9.5744 -52.6848 5.376 -79.1552c-6.8608 -42.8544 -29.4912 -86.1184 -67.2768 -128.6144c-20.5824 -23.1424 -43.3664 -44.2368 -67.6864 -63.3344 c-12.1856 -9.5744 -24.7808 -18.6368 -37.7344 -27.136c-1.3312 -0.8704 -16.7424 -9.9328 -27.4432 -15.4624c-5.9904 -3.072 -9.2672 -9.728 -8.0896 -16.3328l1.28 -7.168c1.2288 -6.8608 6.912 -12.032 13.824 -12.5952 c17.5616 -1.4848 53.8112 -2.4576 102.2464 7.1168c26.5216 5.2224 52.1216 17.664 75.8784 31.7952c39.9872 23.8592 93.5936 67.2768 121.9072 138.752c12.6464 31.8976 18.0224 64.8704 15.9744 98.0992 c-1.9968 32.6656 -10.5984 57.5488 -17.4592 72.704C466.7392 329.6768 453.12 343.7568 435.0976 352zM75.4688 54.1184c6.7072 -4.1472 17.6128 -10.1376 30.8736 -14.5408c22.784 -7.5776 47.0016 -10.8544 70.912 -11.6224c0 0 1.3312 -0.0512 1.3312 -0.0512l1.0752 0.7168 c17.664 11.8272 34.4576 24.2176 49.9712 36.8128c19.3024 15.7184 36.608 31.8464 51.456 47.9232c13.4656 14.592 25.9072 30.1568 36.5568 46.8992c9.3184 14.6432 17.2544 30.2592 22.9376 46.6944 c2.6624 7.68 4.864 15.5648 6.3488 23.6032c1.536 8.1408 2.2528 16.4352 3.328 24.6784c0.2048 1.6384 0.4096 3.2256 0.6144 4.864l-10.1888 -17.3568c-21.3504 -36.4544 -56.576 -68.4544 -104.7552 -95.232 C204.5952 130.048 171.008 116.736 136.8064 105.9328c-18.6368 -5.888 -36.6592 -11.0592 -55.6032 -13.9776c-7.4752 -1.1264 -12.9536 -7.5776 -12.9536 -15.1552c0 -3.2768 0 -6.7072 0 -9.6768 C68.2496 61.8496 70.9632 56.9344 75.4688 54.1184z"/><glyph unicode="&#xE028;" glyph-name="healthy food5" horiz-adv-x="512" d="M476.9792 305.664c8.8064 1.6384 11.3664 13.056 4.096 18.3296c-12.3904 9.0112 -28.3136 17.92 -40.2432 15.2576l24.7808 61.5936c3.3792 8.3456 -4.9664 16.6912 -13.312 13.312L390.656 389.4272 c2.6624 11.9296 -6.2464 27.8528 -15.2576 40.2432c-5.2736 7.2192 -16.6912 4.7104 -18.3296 -4.096c-4.7104 -25.344 -16.4864 -53.8624 -22.4768 -67.328c6.6048 -4.2496 12.8 -9.2672 18.5344 -14.9504l41.5744 -41.5744 c5.7344 -5.7344 10.7008 -11.8784 15.0016 -18.5344C423.1168 289.1776 451.6352 300.9536 476.9792 305.664zM380.8256 287.8464l-41.5744 41.5744c-18.1248 18.1248 -41.472 26.8288 -64.6144 26.8288c-31.5904 0 -62.8224 -16.2304 -79.9744 -46.7456L148.992 228.352l49.5616 -81.7152l-71.2192 43.2128 L26.88 11.1104C16.3328 -7.68 31.232 -28.0576 49.5616 -28.0576c4.1984 0 8.6016 1.0752 12.9536 3.4816l78.08 43.8784l-26.2144 48.64l57.5488 -31.0272l160.4608 90.1632l-44.032 76.9024 l87.7056 -50.2272C415.2832 187.648 419.2256 249.3952 380.8256 287.8464z"/><glyph unicode="&#xE029;" glyph-name="healthy food6" horiz-adv-x="512" d="M504.0128 286.7712c0 17.664 -14.336 32 -32 32H376.2176L357.888 382.464c-1.7408 6.0416 -7.2704 10.1888 -13.5168 10.1888h-79.36c-5.632 0 -10.24 -4.608 -10.24 -10.24v-7.68 c0 -5.632 4.608 -10.24 10.24 -10.24h68.7616l13.1584 -45.6704h-45.9264c-17.664 0 -32 -14.336 -32 -32v-109.568h28.16v109.568c0 2.0992 1.7408 3.84 3.84 3.84h54.016l13.1072 -45.568h-33.6896 c-8.4992 0 -15.36 -6.8608 -15.36 -15.36v-52.48h82.6368c8.1408 0 15.6672 -3.2768 21.1968 -9.216c5.5296 -5.9392 8.3968 -14.0288 7.7824 -22.1696c-4.0448 -55.0912 -28.5696 -106.2912 -69.0688 -144.128 c-4.5056 -4.1984 -9.1648 -8.192 -13.9776 -11.9808c-5.4784 -4.352 -11.1616 -8.3968 -17.0496 -12.1344c-9.472 -6.0928 -19.4048 -11.4688 -29.6448 -16.0256c0 0 0 0 0 0h171.008 c17.664 0 32 14.336 32 32V286.7712zM397.4144 245.0432l-13.1072 45.568h87.7056c2.0992 0 3.84 -1.7408 3.84 -3.84v-41.728H397.4144zM212.0192 1.9456c20.0192 0 39.2192 3.584 56.9344 10.0864c9.8816 3.6352 19.3024 8.192 28.16 13.5168c7.7824 4.7104 15.104 10.0352 21.9648 15.9232 c34.0992 29.3376 55.6032 72.3968 55.6032 120.3712H49.3568C49.3568 73.5232 122.2144 1.9456 212.0192 1.9456zM297.1648 125.7984l11.6736 -8.8064c6.5536 -4.9152 7.8336 -14.2336 2.9184 -20.7872 c-3.4816 -4.6592 -9.216 -6.656 -14.592 -5.632c-2.2016 0.4096 -4.3008 1.3312 -6.1952 2.7136c-3.84 2.8672 -5.8368 7.3216 -5.888 11.776l-0.1536 29.952L297.1648 125.7984zM206.1824 109.6192l13.312 26.8288 l13.312 -26.8288c3.6352 -7.3216 0.6144 -16.2304 -6.7072 -19.8656c-7.3216 -3.6352 -16.2304 -0.6144 -19.8656 6.7072C204.0832 100.7104 204.2368 105.6256 206.1824 109.6192zM130.1504 116.992l23.9104 18.0224 l-0.1536 -29.952c-0.0512 -8.192 -6.7072 -14.7968 -14.8992 -14.7968c-8.192 0.0512 -14.7968 6.7072 -14.7968 14.8992C124.2624 109.9776 126.6176 114.2784 130.1504 116.992zM212.0192 -41.8816c23.7568 0 46.5408 4.0448 67.7376 11.52c13.8752 4.864 27.0336 11.2128 39.3216 18.8416c0.6656 0.4096 1.3312 0.8192 1.9968 1.28 C374.1184 23.3472 410.5728 80.7424 415.3856 146.944c0.6144 8.1408 -5.888 15.104 -14.08 15.104H392.704c-0.8192 -58.624 -29.5936 -110.5408 -73.5744 -142.9504 c-6.9632 -5.12 -14.2848 -9.7792 -21.9648 -13.8752c-8.96 -4.8128 -18.3808 -8.8576 -28.16 -12.0832c-17.92 -5.9392 -37.0688 -9.1648 -56.9856 -9.1648c-98.9184 0 -179.2512 79.5136 -180.6336 178.0736H22.7328 c-8.192 0 -14.6432 -6.912 -14.08 -15.104C16.384 41.3696 104.4992 -41.8816 212.0192 -41.8816z"/><glyph unicode="&#xE02A;" glyph-name="hearts17" horiz-adv-x="512" d="M424.704 -23.9104v40.6016c-8.3968 -4.7616 -17.92 -7.2704 -27.8528 -7.2704c-8.9088 0 -17.8176 2.1504 -25.7024 6.144c-3.328 1.6896 -6.4512 3.6864 -9.3696 5.9904 c-2.9184 -2.304 -6.0928 -4.3008 -9.3696 -5.9904c-7.8848 -4.0448 -16.7936 -6.144 -25.7024 -6.144c-8.9088 0 -17.8176 2.1504 -25.7024 6.144c-3.328 1.6896 -6.4512 3.6864 -9.3696 5.9904 c-2.9184 -2.304 -6.0928 -4.3008 -9.3696 -5.9904c-7.8848 -4.0448 -16.7936 -6.144 -25.7024 -6.144c-8.9088 0 -17.8176 2.1504 -25.7024 6.144c-3.328 1.6896 -6.4512 3.6864 -9.3696 5.9904 c-2.9184 -2.304 -6.0928 -4.3008 -9.3696 -5.9904c-7.8848 -4.0448 -16.7936 -6.144 -25.7024 -6.144s-17.8176 2.1504 -25.7024 6.144c-3.328 1.6896 -6.4512 3.6864 -9.3696 5.9904 c-2.9184 -2.304 -6.0928 -4.3008 -9.3696 -5.9904c-7.8848 -4.0448 -16.7936 -6.144 -25.7024 -6.144c-9.9328 0 -19.456 2.5088 -27.8528 7.2704v-40.6016c0 -11.1616 9.0624 -20.224 20.224 -20.224h295.936 C415.6416 -44.1344 424.704 -35.072 424.704 -23.9104zM87.808 32.6144c0.1024 -0.0512 0.1536 -0.1536 0.256 -0.2048c0.1024 -0.0512 0.1536 -0.1536 0.256 -0.2048c7.5776 -6.1952 17.2544 -9.9328 27.8528 -9.9328c14.336 0 27.0336 6.8608 35.072 17.4592 c8.0384 -10.5984 20.736 -17.4592 35.072 -17.4592c14.336 0 27.0336 6.8608 35.072 17.4592c8.0384 -10.5984 20.736 -17.4592 35.072 -17.4592s27.0336 6.8608 35.072 17.4592 c8.0384 -10.5984 20.736 -17.4592 35.072 -17.4592c14.336 0 27.0336 6.8608 35.072 17.4592c8.0384 -10.5984 20.736 -17.4592 35.072 -17.4592c10.5472 0 20.2752 3.7376 27.8528 9.9328 c0.1024 0.0512 0.1536 0.1536 0.256 0.2048c0.1024 0.0512 0.1536 0.1536 0.256 0.2048c9.5232 8.0896 15.616 20.1216 15.616 33.5872c0 22.0672 -16.2816 40.3456 -37.4784 43.4688V165.7856 c-7.3728 -3.7888 -15.6672 -5.9392 -24.4736 -5.9392c-8.448 0 -16.8448 1.9968 -24.32 5.8368c-2.1504 1.1264 -4.2496 2.3552 -6.2464 3.7376c-1.9968 -1.3824 -4.096 -2.6624 -6.2464 -3.7376 c-7.4752 -3.7888 -15.872 -5.8368 -24.32 -5.8368c-8.448 0 -16.8448 1.9968 -24.32 5.8368c-2.1504 1.1264 -4.2496 2.3552 -6.2464 3.7376c-1.9968 -1.3824 -4.096 -2.6624 -6.2464 -3.7376 c-7.4752 -3.7888 -15.872 -5.8368 -24.32 -5.8368c-8.448 0 -16.8448 1.9968 -24.32 5.8368c-2.1504 1.1264 -4.2496 2.3552 -6.2464 3.7376c-1.9968 -1.3824 -4.096 -2.6624 -6.2464 -3.7376 c-7.4752 -3.7888 -15.872 -5.8368 -24.32 -5.8368c-8.448 0 -16.8448 1.9968 -24.32 5.8368c-2.1504 1.1264 -4.2496 2.3552 -6.2464 3.7376c-1.9968 -1.3824 -4.096 -2.6624 -6.2464 -3.7376 c-7.4752 -3.7888 -15.872 -5.8368 -24.32 -5.8368c-8.8064 0 -17.152 2.1504 -24.4736 5.9392v-56.1152c-21.1968 -3.1232 -37.4784 -21.4016 -37.4784 -43.4688C72.192 52.736 78.2848 40.6528 87.808 32.6144zM134.144 251.904c-21.1968 0 -38.3488 -17.152 -38.3488 -38.3488c0 -11.8784 5.376 -22.4256 13.824 -29.4912c6.656 -5.5296 15.2064 -8.8576 24.4736 -8.8576c12.4928 0 23.6032 5.9904 30.5664 15.2064 c7.0144 -9.2672 18.0736 -15.2064 30.5664 -15.2064c12.4928 0 23.6032 5.9904 30.5664 15.2064c7.0144 -9.2672 18.0736 -15.2064 30.5664 -15.2064c12.4928 0 23.6032 5.9904 30.5664 15.2064 c7.0144 -9.2672 18.0736 -15.2064 30.5664 -15.2064c12.4928 0 23.6032 5.9904 30.5664 15.2064c7.0144 -9.2672 18.0736 -15.2064 30.5664 -15.2064c9.3184 0 17.8688 3.328 24.4736 8.8576 c8.448 7.0144 13.824 17.6128 13.824 29.4912c0 21.1968 -17.152 38.3488 -38.3488 38.3488C366.3872 251.904 146.6368 251.904 134.144 251.904zM312.4224 268.3904c44.1856 7.0144 66.8672 27.392 72.7552 40.96c0.3072 0.6656 0.4608 1.024 0.4608 1.024c6.656 15.36 -0.4096 33.2288 -15.7696 39.8848c-9.9328 4.3008 -20.9408 2.8672 -29.2352 -2.8672 c-1.536 9.984 -7.9872 18.9952 -17.92 23.296c-15.36 6.656 -33.2288 -0.4096 -39.8848 -15.7696c0 0 -0.1536 -0.3584 -0.4096 -1.024c-5.888 -13.568 -5.1712 -44.032 19.968 -81.0496 C304.5888 269.4656 308.5312 267.776 312.4224 268.3904zM92.3648 336.5888C102.0928 314.112 140.288 280.064 214.8864 269.312c3.84 -0.5632 7.6288 1.0752 9.8304 4.2496C267.9808 335.36 269.312 386.4576 259.584 408.9344 c-0.4608 1.0752 -0.7168 1.6896 -0.7168 1.6896C248.1152 435.6096 219.0336 447.1296 194.048 436.3264c-16.1792 -7.0144 -26.6752 -21.6064 -29.184 -37.8368c-13.5168 9.3184 -31.3856 11.6224 -47.5648 4.6592 c-24.9856 -10.8032 -36.5056 -39.8336 -25.7024 -64.8704C91.5968 338.2272 91.904 337.664 92.3648 336.5888z"/><glyph unicode="&#xE02B;" glyph-name="heart" horiz-adv-x="512" d="M382.976 410.7776c0 12.7488 -10.2912 23.04 -23.04 23.04H157.2864c-12.7488 0 -23.04 -10.2912 -23.04 -23.04V370.688H382.976V410.7776zM134.2464 -22.8864c0 -12.7488 10.2912 -23.04 23.04 -23.04H359.936c12.7488 0 23.04 10.2912 23.04 23.04v40.0896H134.2464V-22.8864zM109.568 354.9696c-12.7488 0 -23.04 -10.2912 -23.04 -23.04v-275.968c0 -12.7488 10.2912 -23.04 23.04 -23.04h24.6784H382.976h24.6784c12.7488 0 23.04 10.2912 23.04 23.04v275.968c0 12.7488 -10.2912 23.04 -23.04 23.04 H382.976H134.2464H109.568zM157.44 229.0176c0.0512 0.8704 0.1536 1.6896 0.256 2.56c4.1984 33.1776 40.704 54.016 71.9872 44.9536c11.6736 -3.3792 21.5552 -10.7008 28.928 -20.1728 c7.3728 9.4208 17.2544 16.7936 28.928 20.1728c31.2832 9.0624 67.7888 -11.776 71.9872 -44.9536c0.1024 -0.8704 0.2048 -1.6896 0.256 -2.56c1.792 -23.04 -10.4448 -44.7488 -26.0608 -60.7744 c-17.7664 -18.1248 -40.0896 -30.6688 -59.9552 -46.1824c-5.0688 -3.9424 -10.8544 -8.0384 -15.104 -12.8c-4.3008 4.7616 -10.0864 8.8576 -15.104 12.8c-19.8656 15.5648 -42.1888 28.0576 -59.9552 46.1824 C167.8336 184.2688 155.648 205.9776 157.44 229.0176z"/><glyph unicode="&#xE02C;" glyph-name="holidays3" horiz-adv-x="512" d="M56.32 352.1536c0 -7.0656 5.7344 -12.8 12.8 -12.8h78.6944l9.7792 -44.3904h31.4368l-14.3872 65.0752c-1.28 5.888 -6.5024 10.0352 -12.4928 10.0352H69.12 c-7.0656 0 -12.8 -5.7344 -12.8 -12.8V352.1536zM364.032 345.2416c-0.2048 0.9728 -0.6656 2.2528 -1.3824 3.6352L308.7872 294.9632h43.4688l32.2048 32.2048c-1.3824 0.7168 -2.6624 1.1776 -3.6352 1.3824 C372.3776 330.2912 365.824 336.8448 364.032 345.2416zM448.256 288.9728c1.9456 0 3.9424 1.1264 4.8128 3.1744c17.2032 41.3696 -11.264 114.1248 -11.264 114.1248s-42.8544 16.7936 -81.5104 16.7936c-11.6736 0 -22.9888 -1.536 -32.6144 -5.5296 c-3.7888 -1.5872 -4.352 -6.7584 -0.8704 -9.0112c2.6624 -1.7408 5.2736 -3.84 7.7312 -6.2976c6.0416 -6.0416 9.984 -13.0048 11.264 -19.1488c0.4096 -1.9968 1.9968 -3.584 3.9936 -3.9936 c6.144 -1.28 13.1072 -5.1712 19.1488 -11.264c6.0416 -6.0416 9.984 -13.0048 11.264 -19.1488c0.4096 -1.9968 1.9968 -3.584 3.9936 -3.9936c6.144 -1.28 13.1072 -5.1712 19.1488 -11.264 c6.0416 -6.0416 9.984 -13.0048 11.264 -19.1488c0.4096 -1.9968 1.9968 -3.584 3.9936 -3.9936c6.144 -1.28 13.1072 -5.1712 19.1488 -11.264c2.4576 -2.4576 4.5568 -5.0688 6.2976 -7.7312 C445.0304 289.6896 446.6176 288.9728 448.256 288.9728zM116.992 279.6032c-6.0416 0 -11.6736 -3.072 -15.0016 -8.1408C82.8416 242.3808 71.68 207.5136 71.68 170.0352c0 -73.8304 43.3152 -137.5744 105.8816 -167.168 c12.4928 -6.9632 29.952 -17.0496 46.1824 -27.7504c9.9328 -6.5536 21.3504 -9.8816 32.768 -9.8816s22.8352 3.2768 32.768 9.8816c16.1792 10.752 33.6896 20.8384 46.1824 27.7504 C398.0288 32.4608 441.344 96.2048 441.344 170.0352c0 37.4784 -11.1616 72.2944 -30.3104 101.4272c-3.328 5.0688 -8.96 8.1408 -15.0016 8.1408H116.992z"/><glyph unicode="&#xE02D;" glyph-name="house173" horiz-adv-x="512" d="M88.7296 181.1968v-154.88c0 -11.3152 9.1648 -20.48 20.48 -20.48h189.3376c-0.2048 0.2048 -0.3584 0.3584 -0.5632 0.5632c-9.984 10.1888 -18.1248 21.76 -23.552 33.4848 c-14.4896 31.232 -9.5232 69.376 18.4832 91.6992c13.824 11.008 31.1296 17.1008 48.6912 17.1008c6.912 0 13.7216 -0.9728 20.224 -2.8672c9.5232 -2.7648 18.3296 -7.5264 26.1632 -13.9776 c7.8336 6.5024 16.64 11.264 26.1632 13.9776c2.9696 0.8704 6.0416 1.536 9.1136 1.9968v33.4336L255.9488 311.04L88.7296 181.1968zM40.0896 191.8464c4.5056 -5.7856 11.264 -8.8576 18.0736 -8.8576c4.9152 0 9.8304 1.5872 13.9776 4.8128l183.808 142.6944l183.808 -142.6944c4.1472 -3.2256 9.1136 -4.8128 13.9776 -4.8128 c6.8096 0 13.568 3.0208 18.0736 8.8576l24.5248 31.5904c7.7312 9.984 5.9392 24.32 -4.0448 32.0512L269.9776 428.032c-4.096 3.1744 -9.0624 4.8128 -14.0288 4.8128c-4.9664 0 -9.8816 -1.5872 -14.0288 -4.8128 L19.6096 255.4368c-9.984 -7.7312 -11.776 -22.0672 -4.0448 -32.0512L40.0896 191.8464zM466.944 17.152c16.4864 16.8448 29.3376 39.68 27.4432 63.9488c-0.0512 0.9216 -0.1536 1.792 -0.256 2.7136c-3.7376 29.3376 -31.488 49.5104 -59.8016 49.5104 c-3.7376 0 -7.424 -0.3584 -11.1104 -1.0752c-1.6384 -0.3072 -3.2256 -0.7168 -4.8128 -1.1776c-12.288 -3.584 -22.6816 -11.264 -30.4128 -21.1968c-7.7824 9.9328 -18.1248 17.664 -30.4128 21.1968 c-5.2224 1.536 -10.5984 2.2528 -15.9744 2.2528c-24.7296 0 -49.2544 -15.7696 -57.3952 -39.4752c-9.5232 -27.648 5.632 -57.1392 24.7808 -76.6464c3.9424 -3.9936 8.0384 -7.7312 12.3392 -11.3152 c16.128 -13.4144 34.2528 -24.3712 50.7392 -37.2736c5.3248 -4.1472 11.4176 -8.448 15.9232 -13.4656c4.5056 5.0176 10.5984 9.3184 15.9232 13.4656C424.7552 -15.104 448.256 -1.9456 466.944 17.152z"/><glyph unicode="&#xE02E;" glyph-name="incomes2" horiz-adv-x="512" d="M203.0592 53.0432c12.9536 0 25.6 1.28 37.8368 3.6864c-0.6144 7.0144 1.3824 14.08 5.9392 19.8656l110.7968 140.5952c5.376 6.8096 13.4144 10.752 22.1184 10.752 c5.632 0 10.9568 -1.6384 15.5136 -4.6592c0.9216 7.6288 1.3824 15.4112 1.3824 23.296c0 106.9056 -86.6816 193.5872 -193.5872 193.5872S9.472 353.536 9.472 246.6304 S96.1536 53.0432 203.0592 53.0432zM239.1552 219.5456c-7.7824 9.5744 -21.1456 13.6192 -33.1776 16.384c-14.8992 3.3792 -28.3648 6.7584 -41.8816 14.336c-8.6528 4.8128 -15.4624 11.6224 -20.1216 20.224 c-4.6592 8.4992 -7.0144 18.3296 -7.0144 29.0816c0 19.1488 6.912 34.9184 20.5312 46.848c8.0384 7.0656 19.0464 11.9296 31.488 14.2336v10.4448c0 7.0656 5.7344 12.8 12.8 12.8h6.9632 c7.0656 0 12.8 -5.7344 12.8 -12.8v-10.5984c11.52 -2.2528 21.8112 -6.7584 29.4912 -13.1584c8.1408 -6.7584 14.1312 -15.36 17.8176 -25.6512c2.7136 -7.5776 -2.2528 -15.7184 -10.1888 -16.896l-6.7584 -1.024 c-6.144 -0.9216 -12.032 2.6624 -14.0288 8.5504c-1.6384 4.7616 -3.7888 8.704 -6.5024 11.7248c-6.0928 6.8608 -15.7184 10.752 -26.368 10.752c-11.3664 0 -22.0672 -4.4032 -28.672 -11.8272 c-5.4272 -6.0928 -8.0384 -13.056 -8.0384 -21.4016c0 -8.1408 2.304 -15.0528 6.8096 -20.48c9.4208 -11.3664 24.8832 -14.4384 39.7824 -17.4592c8.704 -1.7408 17.7152 -3.584 25.5488 -7.0144 c8.3456 -3.6864 15.2576 -8.2432 20.5312 -13.5168c5.3248 -5.3248 9.472 -11.776 12.3392 -19.0976c2.8672 -7.2704 4.3008 -15.2576 4.3008 -23.7568c0 -18.5856 -6.0416 -34.3552 -17.8688 -46.7968 c-9.728 -10.24 -22.9888 -16.9984 -38.1952 -19.712v-7.7312c0 -7.0656 -5.7344 -12.8 -12.8 -12.8H201.728c-7.0656 0 -12.8 5.7344 -12.8 12.8v8.0384c-8.3968 1.5872 -16.4352 4.3008 -23.6544 8.0384 c-8.4992 4.4032 -15.9232 11.52 -22.0672 21.1968c-4.096 6.4512 -7.0656 13.9264 -8.8576 22.3232c-1.536 7.0656 3.2256 13.9776 10.3424 15.2064l6.912 1.2288c6.6048 1.1264 12.9536 -2.9696 14.592 -9.472 c1.9456 -7.6288 4.5568 -13.6192 7.8336 -17.8176c7.3216 -9.4208 19.456 -15.0528 32.4096 -15.0528h0c2.2016 0 4.4032 0.1536 6.5536 0.512c9.2672 1.3824 17.5616 5.7856 23.3472 12.3392 c6.0928 6.9632 9.216 15.7184 9.216 26.0096C245.5552 207.2576 243.4048 214.3232 239.1552 219.5456zM308.2752 -47.8208h142.8992c7.0656 0 12.8 5.7344 12.8 12.8v81.408H490.496c10.7008 0 16.6912 12.3392 10.0352 20.736L392.0896 204.8l-2.304 2.9184 c-2.56 3.2768 -6.2976 4.864 -10.0352 4.864s-7.4752 -1.6384 -10.0352 -4.864L258.9184 67.1232c-1.6384 -2.0992 -2.5088 -4.4032 -2.7136 -6.7072c-0.6656 -7.0144 4.7104 -14.0288 12.7488 -14.0288h26.5216v-81.408 C295.4752 -42.0864 301.2096 -47.8208 308.2752 -47.8208z"/><glyph unicode="&#xE02F;" glyph-name="kids2" horiz-adv-x="512" d="M220.4672 61.6448c-15.6672 21.4528 -26.4192 47.5648 -36.7616 72.8064c-17.6128 42.8032 -34.2016 83.2512 -72.2944 99.9936c-5.4272 2.4064 -10.7008 4.096 -15.7184 5.2224 c-9.984 -6.0416 -19.456 -13.4144 -28.1088 -22.016c-2.304 -2.304 -4.4544 -4.6592 -6.6048 -7.0144c2.304 -0.8192 4.5568 -1.7408 6.7584 -2.7136c22.8864 -10.0864 41.728 -26.8288 57.4976 -51.3024 c13.2608 -20.5312 22.8864 -43.9296 32.1536 -66.5088c10.0864 -24.4736 19.5584 -47.616 32.8704 -65.792c10.5472 -14.3872 24.3712 -26.6752 38.0416 -33.7408c5.7344 -2.9696 11.3664 -5.0176 16.8448 -6.144 c11.3152 6.4 21.9648 14.4384 31.5904 24.064c1.4848 1.4848 2.9696 3.0208 4.352 4.5568c-3.6864 1.3824 -7.3728 3.072 -11.0592 4.9664C251.6992 27.4432 234.0864 42.9568 220.4672 61.6448zM41.216 182.016c-29.44 -55.8592 -20.6848 -126.5664 26.3168 -173.568c28.8768 -28.8768 66.7648 -43.3152 104.6016 -43.3152c9.728 0 19.456 0.9728 29.0304 2.8672 c-13.9776 9.3696 -27.0848 22.016 -37.7344 36.608c-15.6672 21.4528 -26.4192 47.5648 -36.7616 72.8064c-17.6128 42.8032 -34.2016 83.2512 -72.2944 99.9936 C49.8176 179.4048 45.4656 180.8896 41.216 182.016zM261.4272 230.9632c-26.3168 19.968 -57.8048 30.0032 -89.2928 30.0032c-11.008 0 -22.0672 -1.2288 -32.8704 -3.6864c16.4864 -10.1888 30.6688 -24.6272 43.008 -43.6736 c13.2608 -20.5312 22.8864 -43.9296 32.1536 -66.5088c10.0864 -24.4736 19.5584 -47.616 32.8704 -65.792c10.5472 -14.3872 24.3712 -26.6752 38.0416 -33.7408c5.5808 -2.8672 11.008 -4.9152 16.2816 -6.0416 c27.9552 50.5344 24.064 113.8688 -11.5712 160.8704l74.7008 74.7008c2.7136 -1.536 5.5808 -2.9184 8.4992 -4.096c8.96 -3.6352 18.432 -5.4784 28.16 -5.4784c9.728 0 19.2 1.8432 28.16 5.4784 c9.3184 3.7888 17.664 9.3184 24.7808 16.4352c7.1168 7.1168 12.6464 15.4624 16.4352 24.7808c3.6352 8.96 5.4784 18.432 5.4784 28.16c0 9.728 -1.8432 19.2 -5.4784 28.16 c-3.7888 9.3184 -9.3184 17.664 -16.4352 24.7808C447.232 402.432 438.8864 407.9616 429.568 411.6992c-8.96 3.6352 -18.432 5.4784 -28.16 5.4784c-9.728 0 -19.2 -1.8432 -28.16 -5.4784 c-9.3184 -3.7888 -17.664 -9.3184 -24.7808 -16.4352c-7.1168 -7.1168 -12.6464 -15.4624 -16.4352 -24.7808c-3.6352 -8.96 -5.4784 -18.432 -5.4784 -28.16c0 -9.728 1.8432 -19.2 5.4784 -28.16 c1.1776 -2.9184 2.56 -5.7856 4.096 -8.4992L261.4272 230.9632zM401.408 386.4064c11.264 0 22.5792 -4.3008 31.1808 -12.9024c17.2032 -17.2032 17.2032 -45.1072 0 -62.3104 c-8.6016 -8.6016 -19.8656 -12.9024 -31.1808 -12.9024c-11.264 0 -22.5792 4.3008 -31.1808 12.9024c-17.2032 17.2032 -17.2032 45.1072 0 62.3104C378.88 382.1056 390.144 386.4064 401.408 386.4064z"/><glyph unicode="&#xE030;" glyph-name="location72" horiz-adv-x="512" d="M258.304 405.504C138.9568 405.504 42.24 308.7872 42.24 189.44s96.768 -216.1152 216.1152 -216.1152c119.3472 0 216.1152 96.768 216.1152 216.1152S377.6512 405.504 258.304 405.504zM424.8064 179.7632l-92.672 -30.976l19.0464 -38.5024c4.352 -8.8064 -4.9664 -18.0736 -13.7728 -13.7216l-38.2464 19.0464l-31.232 -92.8256c-3.1232 -9.3184 -16.2816 -9.3184 -19.4048 0l-31.232 92.7232 l-38.3488 -19.0464c-8.8064 -4.352 -18.0736 4.9152 -13.7216 13.7216l19.1488 38.5536l-92.672 30.976c-9.3184 3.1232 -9.3184 16.2816 -0.0512 19.4048l92.672 31.3344l-19.0464 38.1952 c-4.4032 8.8064 4.9152 18.1248 13.7216 13.7728l38.2464 -18.8928l31.2832 92.6208c3.1232 9.2672 16.2816 9.2672 19.4048 0l31.2832 -92.6208l38.2976 18.944c8.8064 4.352 18.0736 -4.9152 13.7216 -13.7216 l-18.944 -38.3488L424.8576 199.168C434.1248 195.9936 434.1248 182.8352 424.8064 179.7632zM234.496 189.44C234.496 202.447410432 245.040589568 212.992 258.304 212.992C271.055410432 212.992 281.6 202.447410432 281.6 189.44C281.6 176.432589568 271.055410432 165.888 258.304 165.888C245.040589568 165.888 234.496 176.432589568 234.496 189.44Z"/><glyph unicode="&#xE031;" glyph-name="location73" horiz-adv-x="512" d="M49.92 291.584v-272.0768c0 -6.6048 4.1984 -12.4416 10.4448 -14.5408l116.8896 -39.3728V270.08L70.144 306.1248C60.2112 309.504 49.92 302.08 49.92 291.584zM355.5328 166.5024c-4.4032 -4.6592 -10.0352 -7.936 -16.128 -9.472v-148.5824L446.464 -27.5968c9.9328 -3.328 20.2752 4.0448 20.2752 14.5408V259.0208c0 6.6048 -4.1984 12.4416 -10.4448 14.5408 L434.176 281.0368c-4.864 -13.568 -12.6976 -28.7232 -23.4496 -45.3632C396.544 213.7088 377.4464 189.7472 355.5328 166.5024zM306.9952 166.5536C285.696 189.2864 266.8544 212.992 252.416 235.1104c-11.1616 17.152 -19.2512 32.6144 -24.1664 46.2848l-33.5872 -11.3152v-304.4864l127.3344 42.9056V157.3376 C316.3136 159.0272 311.0912 162.1504 306.9952 166.5536zM331.52 418.7648c-0.1024 0 -0.2048 0 -0.256 0c-51.3536 0 -93.7472 -41.1648 -95.1808 -92.5184c-0.256 -8.9088 0.7168 -17.5616 2.7648 -25.8048c0.8192 -4.4032 2.1504 -9.1136 3.9936 -14.1312 c8.8064 -24.2176 22.784 -46.2336 38.5024 -66.56c10.1888 -13.2096 31.232 -48.3328 49.92 -48.3328c19.8656 0 42.6496 39.0656 52.992 53.0432c13.9776 18.8928 27.392 39.2704 35.3792 61.4912 c1.8432 5.12 3.2256 9.984 4.0448 14.4896c1.8432 7.3728 2.816 15.104 2.816 23.0912C426.496 376.0128 384 418.6112 331.52 418.7648zM339.4048 276.0704c-2.6624 -0.4096 -5.376 -0.6656 -8.1408 -0.6656 c-3.1744 0 -6.2464 0.3072 -9.2672 0.8704c-14.8992 2.7648 -27.4944 12.1856 -34.6112 25.0368c-3.9936 7.2192 -6.2464 15.4624 -6.2464 24.2688c0 27.6992 22.4768 50.176 50.176 50.176 c27.6992 0 50.176 -22.4768 50.176 -50.176c0 -8.96 -2.3552 -17.3568 -6.4512 -24.6272C367.6672 288 354.6624 278.5792 339.4048 276.0704z"/><glyph unicode="&#xE032;" glyph-name="love4" horiz-adv-x="512" d="M51.8656 374.8352c-9.8816 0 -17.92 -8.0384 -17.92 -17.92v-381.5424c0 -9.8816 8.0384 -17.92 17.92 -17.92h409.2928c9.8816 0 17.92 8.0384 17.92 17.92V356.9152c0 9.8816 -8.0384 17.92 -17.92 17.92 H428.544v-32.8704c0 -17.6128 -14.336 -31.8976 -31.8976 -31.8976h-20.8896c-17.6128 0 -31.8976 14.336 -31.8976 31.8976v32.8704h-174.592v-32.8704c0 -17.6128 -14.336 -31.8976 -31.8976 -31.8976h-20.8896 c-17.6128 0 -31.8976 14.336 -31.8976 31.8976v32.8704H51.8656zM86.2208 244.3776h340.5312v-244.8896H86.2208V244.3776zM375.7056 425.6256c-9.8816 0 -17.92 -8.0384 -17.92 -17.92v-32.8704v-32.8704c0 -9.8816 8.0384 -17.92 17.92 -17.92h20.8896c9.8816 0 17.92 8.0384 17.92 17.92v32.8704V407.7056 c0 9.8816 -8.0384 17.92 -17.92 17.92H375.7056zM116.3776 425.6256c-9.8816 0 -17.92 -8.0384 -17.92 -17.92v-32.8704v-32.8704c0 -9.8816 8.0384 -17.92 17.92 -17.92h20.8896c9.8816 0 17.92 8.0384 17.92 17.92v32.8704V407.7056 c0 9.8816 -8.0384 17.92 -17.92 17.92H116.3776zM353.7408 155.9552c-3.4304 26.88 -28.8256 45.3632 -54.7328 45.3632c-4.9152 0 -9.8304 -0.6656 -14.6432 -2.048c-11.264 -3.2768 -20.736 -10.3424 -27.8528 -19.4048 c-7.1168 9.1136 -16.64 16.1792 -27.8528 19.4048c-4.8128 1.3824 -9.728 2.048 -14.6432 2.048c-25.9584 0 -51.3536 -18.4832 -54.7328 -45.3632c-0.1024 -0.8192 -0.2048 -1.6384 -0.256 -2.4576 c-1.7408 -22.2208 10.0352 -43.1616 25.1392 -58.5728c17.1008 -17.4592 38.656 -29.5424 57.8048 -44.4928c4.864 -3.7888 10.4448 -7.7312 14.592 -12.3392c4.1472 4.608 9.728 8.5504 14.592 12.3392 c19.1488 15.0016 40.6528 27.0336 57.8048 44.4928c15.104 15.4112 26.88 36.352 25.1392 58.5728C353.9456 154.3168 353.8432 155.136 353.7408 155.9552z"/></font>
</defs>
</svg>
