<?xml version="1.0" encoding="UTF-8" standalone="no"?>
<!-- Created with Inkscape (http://www.inkscape.org/) -->

<svg
   xmlns:dc="http://purl.org/dc/elements/1.1/"
   xmlns:cc="http://creativecommons.org/ns#"
   xmlns:rdf="http://www.w3.org/1999/02/22-rdf-syntax-ns#"
   xmlns:svg="http://www.w3.org/2000/svg"
   xmlns="http://www.w3.org/2000/svg"
   xmlns:inkscape="http://www.inkscape.org/namespaces/inkscape"
   version="1.1"
   width="747.28748"
   height="52.775002"
   id="svg2"
   xml:space="preserve"><metadata
     id="metadata8"><rdf:RDF><cc:Work
         rdf:about=""><dc:format>image/svg+xml</dc:format><dc:type
           rdf:resource="http://purl.org/dc/dcmitype/StillImage" /></cc:Work></rdf:RDF></metadata><defs
     id="defs6" /><g
     transform="matrix(1.25,0,0,-1.25,0,52.775)"
     id="g10"><g
       transform="scale(0.1,0.1)"
       id="g12"><path
         d="m 2980.17,422.199 c 23.68,0 45.94,-0.844 65.97,-7.578 17.37,-5.734 36,-23.832 55.05,-23.832 4.04,5.191 40.34,41.234 40.34,22.434 1.51,0 3.05,0 4.46,0 0,-44.871 0,-89.754 0,-134.625 0,-5.899 1.39,-4.485 -4.46,-4.485 0,-1.543 0,-3.086 0,-4.484 -4.22,0.965 -8.4,1.945 -12.75,2.941 -6.32,2.09 -9.95,5.461 -13.44,10.641 -7.02,14.309 -14.02,28.477 -21.02,42.781 -24.67,41.512 -74.78,86.242 -127.87,60.863 -18.76,-8.832 -34.99,-24.113 -37.82,-45.71 -10.77,-80.086 130.97,-77.7 177.44,-106.297 21.02,-12.914 37.4,-33.254 45.66,-56.25 9.39,-26.368 8.41,-60.188 0.29,-86.7972 -21.16,-68.5742 -95.11,-103.6719 -166.94,-85.42189 -25.49,6.59379 -53.92,37.87109 -79.4,19.35549 -5.46,-3.7891 -37.53,-24.832056 -37.53,-11.9219 -1.55,0 -2.94,0 -4.49,0 0,46.4063 0,92.6955 0,139.1215 0,6.308 -2.94,8.984 4.49,8.984 0,1.543 0,2.93 0,4.473 32.21,-5.325 35.99,-33.235 49.86,-57.93 24.36,-43.4571 73.8,-88.3399 128.97,-75.2852 23.39,5.5976 39.77,21.7304 48.03,44.1601 5.07,14.1719 3.52,29.4731 -2.1,42.5121 -7.56,17.371 -24.08,27.343 -40.32,34.629 -50.15,22.578 -104.9,21.179 -147.75,57.91 -74.93,64.242 -22.82,205.32 75.33,205.32 0,1.551 0,2.949 0,4.492 m 564.68,0 c 23.53,0 47.88,-0.277 67.5,-8.125 16.11,-6.312 35.56,-23.285 53.49,-23.285 4.07,5.191 40.34,41.234 40.34,22.434 1.54,0 3.09,0 4.47,0 0,-44.871 0,-89.754 0,-134.625 0,-5.899 1.42,-4.485 -4.47,-4.485 0,-1.543 0,-3.086 0,-4.484 -4.21,0.965 -8.41,1.945 -12.75,2.941 -6.29,2.09 -9.95,5.461 -13.44,10.641 -7,14.309 -14,28.477 -21,42.781 -24.65,41.512 -74.8,86.242 -127.88,60.863 -18.9,-8.832 -35,-24.113 -37.8,-45.71 -10.36,-77.43 128.7,-79.797 175.19,-104.903 26.18,-14.031 44.68,-41.387 51.26,-69.551 6.03,-25.957 3.08,-57.097 -5.03,-80.8004 -19.61,-56.6484 -86.58,-97.5976 -150.7,-82.87107 -30.95,7.16017 -69.18,41.65237 -95.93,20.89067 -5.61,-4.211 -35.29,-22.29692 -35.29,-10.0977 -1.54,0 -2.94,0 -4.48,0 0,46.4063 0,92.6955 0,139.1215 0,6.308 -2.37,8.984 4.48,8.984 0,1.543 0,2.93 0,4.473 34.17,-5.606 35.57,-36.172 51.81,-61.125 26.18,-40.5551 73.95,-85.5668 127.03,-72.0902 25.21,6.4453 41.18,23.5469 49.44,48.0976 4.9,15.0196 0.28,31.9726 -6.17,43.7496 -9.09,16.415 -26.87,25.399 -43.12,31.844 -49.31,19.778 -105.34,18.371 -144.53,57.637 -67.23,67.316 -22.84,203.203 77.58,203.203 0,1.551 0,2.949 0,4.492 m 398.84,0 c 40.34,0 81.66,-6.453 112.33,-26.375 118.75,-77.129 144.81,-267.422 21.83,-354.6599 C 4050.82,22.2188 4022.68,5.96094 3988.23,2.03516 3803.36,-18.7383 3705.07,205.258 3809.13,341.426 c 37.09,48.66 80.5,62.824 134.56,80.773 m 869.41,0 c 36,0 72.55,-4.91 101.68,-20.34 129.82,-68.437 154.47,-271.23 32.5,-360.6949 C 4920.65,21.8203 4891.8,5.96094 4857.64,2.03516 4670.41,-19 4580.22,200.188 4676.96,339.457 c 34.18,49.508 82.79,66.336 136.14,82.742 m -2769.55,-4.492 c 13.18,-0.84 26.47,-1.266 35.85,-9.391 16.96,-14.582 21.85,-43.05 29.98,-62.972 19.88,-48.672 101.94,-281.8831 135.99,-299.7073 12.03,-6.289 23.25,-9.9492 22.67,-27.0703 -0.27,-5.8672 0.43,-4.7539 -4.88,-4.7539 -47.62,-12.910156 -113.45,-4.49219 -165.83,-4.49219 -6.03,0 -4.48,-1.39843 -4.48,4.49219 -1.55,0 -2.95,0 -4.5,0 0.72,7.7031 -0.26,22.4492 8.98,22.4492 6.29,3.086 12.75,6.1836 19.04,9.375 10.52,19.6289 -0.7,70.6953 -21.42,80.2343 -16.67,7.707 -112.33,9.102 -125.62,-1.836 -9.81,-7.851 -13.17,-21.035 -16.24,-32.6639 -13.03,-48.2422 45.64,-54.9609 45.64,-59.6016 1.55,0 3.09,0 4.49,0 0,-6.4648 2.95,-17.957 -4.49,-17.957 0,-1.543 0,-3.0859 0,-4.49219 -46.34,0 -92.56,0 -138.93,0 -6.29,0 -8.95,-2.80469 -8.95,4.49219 -1.55,0 -2.95,0 -4.49,0 0,6.0352 0,11.9219 0,17.957 14.01,7.6875 26.19,12.7539 37.96,24.6797 19.88,20.7617 27.31,48.6598 38.37,74.0308 24.51,63.137 49.16,126.231 73.67,189.481 13.16,34.5 22.13,69.141 47.19,97.746 m 407.83,0 c 8.39,-2.664 19.72,-6.598 24.76,-14.727 10.93,-17.527 15.42,-40.812 21.03,-61.136 10.77,-34.223 21.56,-68.582 32.35,-102.809 6.86,-18.226 13.72,-36.453 20.43,-54.707 1.55,0 3.09,0 4.49,0 7.01,30.606 59.09,215.012 78.57,223.711 30.26,13.742 106.86,5.184 145.5,5.184 0,-7.43 3.36,-26.926 -4.47,-26.926 0,-1.543 0,-3.09 0,-4.488 -15.14,-0.844 -33.62,-0.844 -39.64,-15.856 -9.67,-23.285 -1.26,-57.351 -0.85,-82.863 0,-50.914 0.16,-101.817 0.16,-152.61 0,-24.101 -3.52,-53.8472 4.34,-74.5894 6.71,-18.0859 44.94,-10.8086 44.94,-19.6289 1.55,0 3.09,0 4.49,0 -1.12,-8.1328 0,-22.4492 -8.97,-22.4492 -48.73,-13.183594 -116.66,-4.49219 -170.29,-4.49219 -6.02,0 -4.49,-1.39843 -4.49,4.49219 -1.53,0 -2.94,0 -4.47,0 0,7.4297 0,14.8711 0,22.4492 1.53,0 3.07,0 4.47,0 0,1.543 0,2.9297 0,4.4727 13.44,0 26.9,0 40.34,0 8.97,96.6326 4.48,204.0586 4.48,305.1756 -2.94,0 -5.88,0 -8.95,0 -31.66,-103.086 -63.31,-206.16 -94.96,-309.2381 -3.22,-7.5781 -7.43,-16.2891 -17.24,-16.2891 -8.53,0 -12.44,5.9297 -15.67,12.5 -36.13,73.7692 -52.52,158.4882 -80.25,236.0432 -8.27,25.656 -16.52,51.312 -24.93,76.984 -2.94,0 -5.89,0 -8.96,0 0,-68.855 0.98,-141.64 4.05,-206.445 1.12,-22.168 2.25,-44.3048 3.37,-66.4728 7.43,-29.7266 50.83,-33.9453 50.83,-63.67189 -49.29,0 -98.58,0 -147.89,0 0,6.03519 0,11.92189 0,17.95699 16.97,6.1641 37.12,15.5586 44.4,33.6641 9.81,24.8242 4.77,62.6836 4.77,91.9926 0,78.121 -4.35,153.562 -4.35,228.875 -17.78,1.675 -33.19,8.98 -49.28,8.98 0,4.488 0,8.981 0,13.461 41.73,19.352 103.21,0.277 147.89,13.457 m 3298.36,0 c 14.01,-0.84 26.17,-0.965 35.85,-9.391 16.52,-14.312 21.16,-41.66 29.25,-61.281 25.78,-63.25 51.67,-126.652 77.45,-189.894 12.19,-31.825 23.12,-72.8012 44.67,-100.0082 8.14,-10.2148 27.89,-20.8711 41.34,-20.8711 -1.12,-8.0078 0,-22.4492 -8.97,-22.4492 -42.85,-12.75391 -116.95,-4.49219 -165.81,-4.49219 -6.04,0 -4.5,-1.39843 -4.5,4.49219 -1.54,0 -2.95,0 -4.49,0 0.72,7.7031 -0.27,22.4492 8.99,22.4492 6.27,3.086 12.73,6.1836 19.03,9.375 10.51,19.6289 -0.84,70.6953 -21.43,80.2343 -16.65,7.707 -112.3,9.102 -125.61,-1.836 -8.41,-6.738 -12.63,-18.926 -15.41,-29.1678 -14.86,-52.1602 44.81,-58.7695 44.81,-63.0977 1.55,0 3.09,0 4.49,0 0,-6.4648 2.92,-17.957 -4.49,-17.957 0,-1.543 0,-3.0859 0,-4.49219 -46.35,0 -92.56,0 -138.92,0 -6.31,0 -8.97,-2.80469 -8.97,4.49219 -1.54,0 -2.93,0 -4.49,0 0,6.0352 0,11.9219 0,17.957 14.44,7.8516 28.45,13.8672 40.07,27.0703 19.19,22.004 26.45,49.6212 37.81,75.3052 24.49,63.261 49.03,126.5 73.53,189.757 11.74,33.227 21.98,66.743 45.8,93.805 M 0,413.223 c 53.7734,0 107.559,0 161.332,0 0,-7.008 3.371,-22.434 -4.492,-22.434 0,-1.547 0,-3.09 0,-4.492 -7.547,0 -26.883,3.371 -26.883,-4.488 -1.527,0 -2.945,0 -4.465,0 3.762,-60.028 31.649,-119.766 51.11,-174.188 6.859,-21.172 13.718,-42.473 20.582,-63.664 1.543,0 3.089,0 4.48,0 0,1.543 0,2.941 0,4.484 15.691,29.747 44.82,114.028 46.641,148.231 0.828,19.777 -7.282,44.605 -14.438,60.734 -6.012,13.461 -37.668,32.957 -37.808,42.774 0.289,1.547 0.566,3.09 0.718,4.617 4.461,12.348 121.399,8.426 143.821,8.426 5.882,0 4.468,1.543 4.468,-4.485 1.551,0 3.094,0 4.485,0 0,-6.035 0,-12.058 0,-17.949 -11.344,-1.687 -25.34,-3.789 -29.555,-15.851 -9.934,-27.903 41.453,-154.129 52.809,-185.688 4.207,-12.07 8.402,-24.246 12.593,-36.316 5.887,0 4.497,1.543 4.497,-4.493 1.543,0 3.085,0 4.476,0 0,1.551 0,3.094 0,4.493 12.547,30.195 62.879,178.097 48.465,210.652 -6.453,14.586 -17.231,21.32 -30.402,27.762 -4.059,2.105 -25.344,17.39 -13.59,17.39 0,1.547 0,2.942 0,4.485 46.367,0 92.715,0 138.933,0 -7.715,-28.618 -38.64,-37.446 -51.394,-63.942 C 473.344,322.625 467.48,293.035 458.801,264.559 442.543,209.75 426.305,154.75 409.918,99.9141 400.266,69.7578 390.582,39.457 380.93,9.32031 369.434,10.8633 355.586,11.8398 348.008,20.8125 335.406,35.6875 273.367,221.238 273.367,242.703 c -2.933,0 -5.879,0 -8.969,0 C 250.254,199.074 236.113,155.473 221.84,111.84 212.734,82.5312 207.68,41.7227 188.496,17.3281 183.184,10.7266 172.262,9.18359 164.125,11.9961 146.91,18.0117 141.73,52.3945 136.957,66.9766 113.863,137.629 90.8906,208.195 67.7734,278.875 c -9.3789,28.199 -15.1211,61.848 -31.5,86.801 -7.2851,10.949 -23.25,20.621 -36.2734,20.621 0,8.98 0,17.953 0,26.926 m 591.555,0 c 61.211,0 122.543,0 183.742,0 -0.844,-7.848 0.558,-26.926 -8.969,-26.926 -13.441,-1.543 -26.89,-3.09 -40.332,-4.488 0,-113.731 0,-227.469 0,-341.0746 8.828,0 44.82,3.789 44.82,-4.4727 1.547,0 3.071,0 4.481,0 0,-8.9844 0,-17.957 0,-26.94139 -61.199,0 -122.41,0 -183.742,0 0,7.57809 -3.352,26.94139 4.492,26.94139 0,1.543 0,2.9297 0,4.4727 9.226,0.9883 29.129,0.2734 34.012,8.5664 11.211,19.7539 6.164,55.9652 6.164,81.1792 0,83.731 0.148,167.465 0.148,251.329 -14.984,0 -29.828,0 -44.816,0 0,10.523 0,20.894 0,31.414 m 237.527,0 c 67.219,0 134.441,0 201.658,0 0,-7.43 3.23,-26.926 -4.48,-26.926 0,-1.543 0,-3.09 0,-4.488 -17.93,0 -35.846,0 -53.78,0 0.141,-104.621 0.418,-210.43 0.547,-314.0043 0.297,-8.4844 -1.672,-27.0703 8.403,-27.0703 14.847,-4.9024 32.23,-4.0625 49.17,-3.9336 103.09,1.6875 94.11,120.6252 143.54,120.6252 -1.54,-47.688 -4.48,-93.2737 -4.48,-139.1213 0,-5.8906 1.41,-4.4922 -4.47,-4.4922 0,-1.543 0,-3.0859 0,-4.49219 -79.15,0 -158.26,0 -237.53,0.14453 -29.961,0 -66.933,-4.63672 -92.84,4.07426 -3.918,1.3867 -21.707,13.7382 -10.23,13.7382 0,2.9493 0,5.8985 0,8.9844 9.254,2.9297 49.297,2.7852 49.297,13.4571 19.32,44.5898 8.968,162.3942 8.968,219.9102 0,29.019 5.172,67.16 -3.636,92.414 -9.528,27.059 -54.629,16.129 -54.629,46.695 1.547,1.547 3.09,2.942 4.492,4.485 m 394.348,0 c 67.22,0 134.47,0 201.68,0 0,-7.43 3.23,-26.926 -4.47,-26.926 0,-1.543 0,-3.09 0,-4.488 -17.94,0 -35.85,0 -53.79,0 0,-46.567 -7.85,-315.6918 7.28,-333.9067 10.51,-12.625 43.01,-11.6406 59.95,-11.6406 19.6,9.9531 38.78,9.1016 56.44,24.5313 30.24,26.9062 41.31,96.633 78,96.633 -1.54,-47.688 -4.49,-93.2737 -4.49,-139.1213 0,-5.8906 1.4,-4.4922 -4.47,-4.4922 0,-1.543 0,-3.0859 0,-4.49219 -104.91,0 -208.12,4.49219 -309.24,4.49219 -7.68,0 -31.36,-3.3594 -31.36,4.4922 -1.54,0 -2.93,0 -4.48,0 0,6.2969 -3.07,13.4648 4.48,13.4648 14,13.3125 39.49,5.6055 49.58,24.6797 12.73,24.3946 15.41,275.0038 4.75,305.5938 -9.37,26.777 -54.33,17.246 -54.33,46.695 1.55,1.547 3.07,2.942 4.47,4.485 m 398.87,0 c 61.21,0 122.54,0 183.73,0 -0.83,-7.848 0.57,-26.926 -8.96,-26.926 -13.44,-1.543 -26.89,-3.09 -40.33,-4.488 0,-113.731 0,-227.469 0,-341.0746 8.83,0 44.82,3.789 44.82,-4.4727 1.53,0 3.07,0 4.47,0 0,-8.9844 0,-17.957 0,-26.94139 -61.19,0 -122.4,0 -183.73,0 0,7.57809 -3.37,26.94139 4.49,26.94139 0,1.543 0,2.9297 0,4.4727 8.95,0.9883 29.26,0.2734 34.01,8.5664 13.6,23.9648 6.17,73.2112 6.17,103.6332 0,76.277 0.14,152.597 0.14,228.875 -14.98,0 -29.82,0 -44.81,0 0,10.523 0,20.894 0,31.414 m 2581.31,0 c 32.64,0 104.77,7.578 129.27,-5.461 10.11,-5.336 188.93,-241.371 188.93,-241.371 1.54,0 3.08,0 4.49,0 0,6.035 -1.54,4.492 4.48,4.492 0,51.199 7.98,133.945 -3.66,178.398 -8.24,31.133 -54.6,38.418 -54.6,59.457 1.54,0 3.09,0 4.47,0 0,1.547 0,2.942 0,4.485 44.82,0 89.63,0 134.44,0 5.89,0 4.49,1.543 4.49,-4.485 1.54,0 3.08,0 4.49,0 -9.95,-31.976 -41.88,-30.168 -50.7,-68.015 -9.68,-40.383 -3.09,-94.528 -3.09,-138.434 0,-66.203 -4.47,-128.5937 -4.47,-192.96869 -16.82,1.13279 -30.82,1.68749 -42.86,11.49219 -21.14,17.4023 -217.07,276.5625 -217.07,284.7185 -2.94,0 -5.89,0 -8.98,0 0,-55.402 0,-110.801 0,-166.066 0,-23.692 -2.52,-51.3361 6.32,-70.84 8.67,-19.1797 23.67,-25.7891 41.16,-35.4492 5.75,-3.1133 22,-23.85549 10.78,-23.85549 0,-1.54297 0,-3.08593 0,-4.49219 -44.66,7.29298 -94.79,4.49219 -143.4,4.49219 -6.03,0 -4.49,-1.39843 -4.49,4.49219 -1.54,0 -2.94,0 -4.49,0 0,6.0352 0,11.9219 0,17.957 17.68,6.4453 36.86,15.2657 45.95,33.2344 18.21,36.6011 11.06,125.0861 12.61,173.2071 1,33.086 10.23,74.18 0.42,106.703 -8.26,27.223 -58.98,44.606 -58.98,50.363 -2.78,4.211 -8.24,8.973 0,8.973 1.55,2.945 3.1,5.879 4.49,8.973 m 855.97,0 c 35.59,0 133.06,7.007 158.25,-5.61 10.78,-5.332 79.26,-201.801 79.26,-223.285 1.55,0 3.1,0 4.49,0 0,1.543 0,2.981 0,4.492 1.54,0 3.08,0 4.48,0 5.04,31.84 53.35,200.7 70.85,215.852 18.78,16.406 108.28,8.551 139.79,8.551 6.16,0 8.96,2.394 8.96,-4.485 1.55,0 3.09,0 4.49,0 -1.55,-7.426 -2.94,-15.004 -4.49,-22.441 -9.11,-2.387 -40.34,-2.813 -40.34,-13.461 -12.17,-27.344 -7.15,-301.2305 5.74,-324.1133 6.15,-10.918 30.95,-12.461 43.55,-12.461 0,-7.0195 3.08,-22.4492 -4.46,-22.4492 0,-1.543 0,-3.0859 0,-4.49219 -55.32,0 -110.49,0 -165.83,0 -6.3,0 -13.45,-2.9414 -13.45,4.49219 -1.54,0 -2.95,0 -4.49,0 0,7.4297 0,14.8711 0,22.4492 15,1.543 30,2.9297 44.83,4.4727 8.96,96.6326 4.48,204.0586 4.48,305.1756 -1.54,0 -2.94,0 -4.48,0 0,-1.543 0,-3.086 0,-4.484 -8.12,-22.164 -16.24,-44.324 -24.36,-66.488 -19.75,-59.172 -37.25,-119.778 -55.89,-180.3364 -7.54,-26.9414 -15.11,-53.8672 -22.81,-80.7891 -13.6,-0.4297 -20.05,2.3906 -26.76,13.4648 -9.66,26.6602 -19.33,53.293 -28.99,79.9337 -17.93,53.855 -35.85,107.723 -53.78,161.57 -8.26,24.254 -16.52,48.387 -24.92,72.645 -1.55,0 -2.95,0 -4.49,0 0,-61.301 0,-122.723 0,-184 0,-28.184 -3.22,-58.7698 3.64,-84.0041 3.92,-14.7461 12.48,-25.2539 25.22,-34.0742 5.58,-3.9454 25.77,-12.7618 20.31,-23.4375 -8.84,-16.679731 -108.56,-10.64458 -134.31,-11.08208 -6.03,0 -4.49,-1.39843 -4.49,4.49219 -1.54,0 -2.94,0 -4.49,0 0,4.49219 0,8.98439 0,13.47659 16.4,10.6445 37.13,18.7773 45.66,37.7148 11.93,26.7969 7.97,64.0823 7.97,96.9143 0,67.301 0.17,134.633 0.17,201.945 -1.55,0 -2.95,0 -4.49,0 0,-6.176 2.94,-13.461 -4.48,-13.461 1.53,10.52 3.08,20.899 4.48,31.418 -8.54,1.121 -44.82,2.246 -44.82,8.969 -1.54,0 -2.94,0 -4.49,0 1.55,8.98 3.09,17.953 4.49,26.926 m -3262.51,-8.973 0,0 m 2137.68,-13.461 c 0,-1.547 0,-3.09 0,-4.492 -99.04,-45.719 -84.89,-369.1056 44.39,-356.2345 116.5,11.8047 95.63,297.0545 21.14,349.5115 -17.65,12.34 -42.15,11.215 -65.53,11.215 m 869.38,0 c 0,-1.547 0,-3.09 0,-4.492 -98.86,-45.574 -84.86,-369.1056 44.4,-356.2345 116.53,11.8047 95.66,297.1955 21.14,349.5115 -17.64,12.34 -42.28,11.215 -65.54,11.215 M 2030.11,296.547 c -11.9,-33.102 -49.3,-100.832 -49.3,-134.629 14.28,0 94.1,-2.805 94.1,4.473 1.54,0 3.09,0 4.49,0 -8.4,44.882 -25.91,93.265 -49.29,130.156 m 3706.19,-4.488 c -12.36,-34.223 -49.32,-94.379 -49.32,-130.141 14.15,0 94.11,-2.805 94.11,4.473 1.56,0 3.1,0 4.5,0 -7.97,42.507 -23.38,92.711 -49.29,125.668 M 3217.71,188.82 c 41.86,0 83.73,0 125.48,0 0,-16.394 0,-32.937 0,-49.355 -38.8,0 -77.59,0 -116.53,0 -6.28,0 -8.95,-2.801 -8.95,4.492 -1.55,0 -2.95,0 -4.5,0 1.55,15.012 3.09,29.863 4.5,44.863 M 2209.38,49.7188 c 0,-1.5508 0,-3.0938 0,-4.4922 0,1.5429 0,2.9414 0,4.4922 M 1985.29,27.2773 c 0,-1.5429 0,-3.0859 0,-4.4804 0,1.5429 0,2.9375 0,4.4804"
         inkscape:connector-curvature="0"
         id="path14"
         style="fill:#a3791e;fill-opacity:1;fill-rule:evenodd;stroke:none" /></g></g></svg>